<svg width="137" height="50" fill="none" xmlns="http://www.w3.org/2000/svg"><path fill-rule="evenodd" clip-rule="evenodd" d="M42.577 33.014c.106.025.214.037.323.037.286 0 .565-.086.774-.245.289-.22.395-.544.28-.844L31.855.606C31.716.246 31.287 0 30.8 0H13.2c-.486 0-.915.247-1.055.607L.045 31.963a.664.664 0 0 0-.009.457c.051.15.155.286.3.394.144.108.324.183.52.218.197.034.402.026.593-.024l13.2-3.39c.345-.089.611-.305.71-.575l6.557-18.048 5.614 18.017a.815.815 0 0 0 .268.382c.13.108.296.187.479.23l14.3 3.39Zm-1.316-2.086-11.738-2.782L24.057 10.6c-.11-.366-.376-.694-.757-.93a2.603 2.603 0 0 0-1.34-.369c-1 .008-1.886.483-2.16 1.238l-6.401 17.612-10.643 2.734L14.02 1.695h15.96L41.26 30.928ZM23.708 49.913a1.375 1.375 0 0 0 1-.011c.158-.065.293-.158.394-.272a.745.745 0 0 0 .186-.38.672.672 0 0 0-.065-.405c-.18-.362-1.61-3.602 3.869-5.712 3.863-1.489 5.472-4.426 4.415-8.06a.81.81 0 0 0-.277-.4 1.197 1.197 0 0 0-.503-.232 1.416 1.416 0 0 0-.588 0 1.196 1.196 0 0 0-.503.233c-1.081.88-4.738 1.768-9.636 1.768-4.913 0-8.383-.876-9.53-1.69-.303-.214-.733-.28-1.118-.174-.384.107-.661.37-.717.682-.374 2.08-.495 5.957 2.886 8.562.143.11.323.189.52.225.197.037.404.03.597-.017.193-.048.365-.137.497-.255a.78.78 0 0 0 .25-.417c.072-.34.451-1.396 1.241-1.783.211-.103.569-.225 1.221-.08.691.15.69 1.084.614 2.385l-.004.069c-.016.295-.032.586-.032.862 0 2.035 1.777 3.751 5.283 5.102Zm-5.256-10.049a5.414 5.414 0 0 0-1.156-.13 4.169 4.169 0 0 0-1.85.41 3.958 3.958 0 0 0-1.516 1.326c-1.114-1.477-1.336-3.229-1.268-4.635 2.213.812 5.618 1.302 9.338 1.302 3.911 0 7.412-.529 9.61-1.402.152 1.77-.508 3.729-3.502 4.882-4.447 1.714-5.344 4.177-5.341 5.886-2.141-1.22-2.141-2.288-2.141-2.692 0-.273.016-.562.034-.855.088-1.502.208-3.56-2.208-4.092Z" fill="#fff"/><path d="M60.37 36h-5.667l7.362-21.818h7.02L76.447 36h-5.668l-5.124-16.321h-.17L60.37 36Zm-.756-8.587h11.847v4.006H59.614v-4.006Zm32.97-2.78-4.783.128a1.785 1.785 0 0 0-.405-.906c-.22-.27-.508-.48-.863-.628-.348-.157-.753-.235-1.215-.235-.603 0-1.118.12-1.544.362-.42.242-.625.569-.618.98-.007.32.12.597.383.832.27.234.75.422 1.439.564l3.153.597c1.633.312 2.848.83 3.643 1.555.803.724 1.208 1.683 1.215 2.877-.007 1.122-.341 2.098-1.002 2.93-.653.83-1.548 1.477-2.684 1.938-1.137.455-2.436.682-3.9.682-2.336 0-4.18-.48-5.529-1.438-1.342-.966-2.109-2.259-2.3-3.878l5.145-.128c.114.597.408 1.051.884 1.364.476.312 1.083.468 1.822.468.668 0 1.21-.124 1.63-.372.419-.249.632-.58.64-.991-.008-.37-.171-.664-.491-.884-.32-.228-.82-.405-1.502-.533l-2.855-.543c-1.64-.299-2.862-.85-3.665-1.652-.803-.81-1.2-1.84-1.193-3.09-.007-1.093.284-2.027.873-2.801.59-.781 1.428-1.378 2.515-1.79 1.086-.412 2.368-.618 3.846-.618 2.215 0 3.963.466 5.241 1.396 1.278.923 1.985 2.195 2.12 3.814Zm12.206-4.997v3.836H94.467v-3.836h10.323Zm-8.16-3.92h5.209v15.138c0 .32.05.58.149.778.107.192.26.33.458.416.199.078.437.117.714.117.199 0 .409-.018.629-.053a9.66 9.66 0 0 0 .511-.107l.788 3.76c-.248.072-.6.16-1.054.267a8.77 8.77 0 0 1-1.609.202c-1.222.057-2.269-.085-3.143-.426-.866-.348-1.53-.888-1.992-1.62-.454-.73-.675-1.65-.66-2.758V15.716ZM107.448 36V19.636h5.061v2.983h.17c.298-1.08.785-1.882 1.459-2.407.675-.533 1.46-.8 2.355-.8.241 0 .49.018.746.054.255.028.493.075.713.138v4.528a4.97 4.97 0 0 0-.98-.202 8.681 8.681 0 0 0-1.065-.075 3.38 3.38 0 0 0-1.673.416c-.49.27-.877.65-1.161 1.14-.277.482-.415 1.05-.415 1.704V36h-5.21Zm19.416.309c-1.719 0-3.196-.352-4.432-1.055a7.27 7.27 0 0 1-2.844-2.961c-.661-1.272-.991-2.745-.991-4.422 0-1.683.33-3.156.991-4.42a7.185 7.185 0 0 1 2.844-2.962c1.236-.71 2.713-1.066 4.432-1.066 1.719 0 3.192.355 4.421 1.066a7.107 7.107 0 0 1 2.845 2.961c.667 1.265 1.001 2.738 1.001 4.421 0 1.677-.334 3.15-1.001 4.422a7.191 7.191 0 0 1-2.845 2.961c-1.229.703-2.702 1.055-4.421 1.055Zm.032-3.931c.625 0 1.154-.192 1.587-.575.434-.384.764-.917.991-1.599.234-.681.352-1.47.352-2.364 0-.91-.118-1.705-.352-2.387-.227-.682-.557-1.214-.991-1.598-.433-.383-.962-.575-1.587-.575-.646 0-1.193.192-1.641.575-.44.384-.777.916-1.012 1.598-.227.682-.341 1.477-.341 2.387 0 .894.114 1.683.341 2.364.235.682.572 1.215 1.012 1.599.448.383.995.575 1.641.575Z" fill="#fff"/></svg>