<svg width="112" height="50" fill="none" xmlns="http://www.w3.org/2000/svg"><path d="M44 0H0l3.882 44.737L22 50l18.118-5.263L44 0Z" fill="#fff"/><path d="M22 3.947v41.974l14.494-4.21L39.73 3.947H22Z" fill="#B9B9B9"/><path d="M33.776 10.526H22v5.264h6.341l-.388 5.263H22v5.263h5.694l-.388 5.92L22 34.08v5.526l10.224-3.42.905-15.132.648-10.527Z" fill="#010101"/><path d="M22 10.526v5.264H10.482l-.388-5.264H22Zm-5.953 10.527.259 5.263H22v-5.263h-5.953Zm.518 7.894h-5.177l.389 7.237L22 39.605V34.08l-5.306-1.842-.13-3.29Z" fill="#070707"/><path d="M75.456 22.087h-5.327a4.62 4.62 0 0 0-.437-1.481 3.602 3.602 0 0 0-.873-1.13 3.729 3.729 0 0 0-1.29-.713 4.934 4.934 0 0 0-1.63-.256c-1.057 0-1.97.26-2.737.778-.76.518-1.346 1.268-1.758 2.248-.405.98-.607 2.166-.607 3.558 0 1.449.206 2.663.618 3.643.419.973 1.005 1.708 1.758 2.206.76.49 1.658.735 2.695.735.582 0 1.111-.075 1.587-.224.483-.15.906-.366 1.268-.65.37-.291.671-.643.906-1.055.241-.419.408-.89.5-1.416l5.327.032a8.068 8.068 0 0 1-.842 2.855 9.118 9.118 0 0 1-1.907 2.567c-.81.767-1.796 1.378-2.961 1.833-1.158.454-2.486.681-3.985.681-1.974 0-3.742-.433-5.305-1.3-1.555-.873-2.784-2.144-3.686-3.813-.902-1.67-1.353-3.7-1.353-6.094 0-2.4.458-4.436 1.374-6.105.916-1.669 2.156-2.936 3.718-3.803 1.563-.866 3.313-1.3 5.252-1.3 1.321 0 2.543.185 3.665.555a8.894 8.894 0 0 1 2.962 1.597 8.172 8.172 0 0 1 2.077 2.568c.533 1.016.863 2.177.991 3.484Zm17.304 2.546-4.784.128a1.785 1.785 0 0 0-.404-.906c-.22-.27-.508-.48-.863-.628-.348-.157-.753-.235-1.215-.235-.604 0-1.118.12-1.545.362-.419.242-.625.569-.617.98-.008.32.12.597.383.832.27.234.75.422 1.438.564l3.154.597c1.633.312 2.848.83 3.643 1.555.803.724 1.207 1.683 1.215 2.877-.008 1.122-.341 2.098-1.002 2.93-.653.83-1.548 1.477-2.684 1.938-1.137.455-2.437.682-3.9.682-2.336 0-4.18-.48-5.529-1.438-1.342-.966-2.11-2.259-2.3-3.878l5.145-.128c.113.597.408 1.051.884 1.364.476.312 1.083.468 1.822.468.667 0 1.21-.124 1.63-.372.419-.249.632-.58.639-.991-.007-.37-.17-.664-.49-.884-.32-.228-.82-.405-1.502-.533l-2.856-.543c-1.64-.299-2.862-.85-3.664-1.652-.803-.81-1.2-1.84-1.193-3.09-.008-1.093.284-2.027.873-2.801.59-.781 1.428-1.378 2.514-1.79 1.087-.412 2.369-.618 3.846-.618 2.216 0 3.963.466 5.242 1.396 1.278.923 1.985 2.195 2.12 3.814Zm17.256 0-4.784.128a1.772 1.772 0 0 0-.405-.906 2.17 2.17 0 0 0-.863-.628c-.348-.157-.752-.235-1.214-.235-.604 0-1.119.12-1.545.362-.419.242-.625.569-.618.98-.007.32.121.597.384.832.27.234.749.422 1.438.564l3.153.597c1.634.312 2.849.83 3.644 1.555.803.724 1.207 1.683 1.214 2.877-.007 1.122-.34 2.098-1.001 2.93-.653.83-1.548 1.477-2.685 1.938-1.136.455-2.436.682-3.899.682-2.336 0-4.18-.48-5.529-1.438-1.342-.966-2.11-2.259-2.301-3.878l5.146-.128c.113.597.408 1.051.884 1.364.476.312 1.083.468 1.822.468.667 0 1.21-.124 1.63-.372.419-.249.632-.58.639-.991-.007-.37-.171-.664-.49-.884-.32-.228-.821-.405-1.502-.533l-2.856-.543c-1.64-.299-2.862-.85-3.664-1.652-.803-.81-1.2-1.84-1.194-3.09-.007-1.093.284-2.027.874-2.801.59-.781 1.428-1.378 2.514-1.79 1.087-.412 2.369-.618 3.846-.618 2.216 0 3.963.466 5.242 1.396 1.278.923 1.985 2.195 2.12 3.814Z" fill="#fff"/></svg>