<svg width="133" height="50" fill="none" xmlns="http://www.w3.org/2000/svg"><path d="M23.916 0c-1.443 0-2.53.2-3.415.908-.886.708-1.412 1.68-2.207 3.033-.512.869-1.797 3.428-3.575 7.018-1.779 3.59-3.992 8.117-6.155 12.586-2.162 4.47-4.271 8.878-5.844 12.236a241.627 241.627 0 0 0-1.897 4.13c-.23.517-.412.94-.543 1.265-.066.163-.118.3-.162.431-.045.13-.118.088-.118.615 0 1.585.425 3.225 1.645 5.197h-.002c.69 1.117 1.624 2.02 2.759 2.414 1.135.393 2.532.108 3.51-1.006.364-.414.524-.758.924-1.451.4-.694.914-1.618 1.52-2.717 1.209-2.197 2.777-5.093 4.474-8.194 3.393-6.204 7.314-13.25 9.801-17.028l.03-.045c.172-.284.069-.181.255-.181.188 0 .283-.023.414.19l.01.015.01.014c2.488 3.78 6.412 10.826 9.81 17.03 1.698 3.102 3.27 6 4.48 8.197a168.454 168.454 0 0 0 1.522 2.717c.4.693.562 1.038.925 1.45.978 1.113 2.372 1.398 3.507 1.006 1.135-.392 2.07-1.296 2.76-2.414C49.575 45.443 50 43.801 50 42.22c0-.526-.075-.484-.12-.614a8.329 8.329 0 0 0-.162-.432 41.84 41.84 0 0 0-.543-1.265c-.46-1.036-1.111-2.45-1.897-4.13a1145.57 1145.57 0 0 0-5.843-12.235c-2.161-4.47-4.375-8.997-6.154-12.587-1.777-3.588-3.06-6.141-3.572-7.01v-.002c-.803-1.366-1.378-2.354-2.293-3.05C28.5.197 27.399 0 25.954 0h-2.038Zm0 2.44h2.038c1.28 0 1.803.147 2.227.47.424.322.906 1.03 1.696 2.373h.003c.318.54 1.711 3.274 3.485 6.853A1557.34 1557.34 0 0 1 39.508 24.7c2.159 4.462 4.267 8.866 5.831 12.207.783 1.67 1.428 3.076 1.875 4.082.223.503.398.907.508 1.182.035.085.05.13.07.186-.016 1.104-.226 2.037-1.239 3.674-.463.75-1.099 1.292-1.607 1.468-.507.175-.828.15-1.297-.384.12.135-.263-.4-.647-1.065-.384-.666-.894-1.579-1.496-2.671-1.204-2.184-2.777-5.083-4.479-8.19-3.398-6.206-7.295-13.218-9.9-17.178-.652-1.049-1.71-1.242-2.211-1.242-.501 0-1.476.314-2.054 1.235l.004-.012-.01.019c-.003.004-.007.003-.009.007l-.192.312v.029c-2.602 3.998-6.366 10.75-9.693 16.832-1.7 3.108-3.27 6.006-4.472 8.19a168.862 168.862 0 0 1-1.494 2.674c-.384.665-.767 1.199-.647 1.063v.002c-.47.534-.79.557-1.298.381-.507-.176-1.141-.718-1.604-1.468-1.013-1.636-1.223-2.566-1.24-3.674.021-.056.034-.098.069-.184.11-.274.285-.68.508-1.184A240.448 240.448 0 0 1 4.66 36.91c1.565-3.34 3.67-7.744 5.83-12.207a1555.62 1555.62 0 0 1 6.143-12.565c1.774-3.58 3.17-6.314 3.49-6.858.797-1.354 1.264-2.076 1.654-2.387.389-.311.86-.453 2.139-.453ZM60.651 36V14.182h15.213v4.283h-9.94v4.474h9.163v4.293h-9.162v4.485h9.94V36H60.65ZM83.6 19.636l2.695 5.391 2.791-5.39h5.252l-4.57 8.181L94.507 36h-5.209l-3.004-5.433L83.364 36H78.08l4.752-8.182-4.517-8.182h5.284Zm13.117 22.5v-22.5h5.156v2.802h.16c.213-.497.515-.976.905-1.438a4.547 4.547 0 0 1 1.513-1.13c.618-.298 1.357-.447 2.216-.447a6.05 6.05 0 0 1 3.185.895c.995.597 1.797 1.516 2.408 2.76.611 1.242.916 2.826.916 4.75 0 1.855-.294 3.406-.884 4.656-.582 1.25-1.371 2.188-2.365 2.813-.987.625-2.085.937-3.292.937-.824 0-1.538-.135-2.141-.404a4.659 4.659 0 0 1-1.524-1.066 5.106 5.106 0 0 1-.937-1.417h-.107v8.79h-5.21Zm5.103-14.318c0 .88.117 1.648.351 2.301.242.654.586 1.162 1.034 1.524.454.355.998.532 1.63.532.639 0 1.182-.177 1.63-.532.447-.363.784-.87 1.012-1.524.234-.653.351-1.42.351-2.3 0-.881-.117-1.645-.351-2.291-.228-.647-.565-1.147-1.012-1.502-.441-.355-.984-.533-1.63-.533-.64 0-1.183.174-1.63.522-.448.348-.792.845-1.034 1.491-.234.647-.351 1.417-.351 2.312Zm21.725 8.49c-1.719 0-3.196-.35-4.432-1.054a7.28 7.28 0 0 1-2.845-2.961c-.66-1.272-.99-2.745-.99-4.422 0-1.683.33-3.156.99-4.42a7.193 7.193 0 0 1 2.845-2.962c1.236-.71 2.713-1.066 4.432-1.066 1.718 0 3.192.355 4.421 1.066a7.099 7.099 0 0 1 2.844 2.961c.668 1.265 1.002 2.738 1.002 4.421 0 1.677-.334 3.15-1.002 4.422a7.183 7.183 0 0 1-2.844 2.961c-1.229.703-2.703 1.055-4.421 1.055Zm.032-3.93c.625 0 1.154-.192 1.587-.575.433-.384.763-.917.991-1.599.234-.681.351-1.47.351-2.364 0-.91-.117-1.705-.351-2.387-.228-.682-.558-1.214-.991-1.598-.433-.383-.962-.575-1.587-.575-.647 0-1.194.192-1.641.575-.44.384-.778.916-1.012 1.598-.227.682-.341 1.477-.341 2.387 0 .894.114 1.683.341 2.364.234.682.572 1.215 1.012 1.599.447.383.994.575 1.641.575Z" fill="#fff"/></svg>