<svg width="134" height="50" fill="none" xmlns="http://www.w3.org/2000/svg"><path d="M18.214 16.667H8.5c-4.694 0-8.5-3.731-8.5-8.334C0 3.731 3.806 0 8.5 0h9.714v16.667Z" fill="#A6A5A5"/><path d="M17 33.333H8.5C3.806 33.333 0 29.603 0 25c0-4.602 3.806-8.333 8.5-8.333H17v16.666Z" fill="#F4F4F4"/><path d="M8.5 50C3.806 50 0 46.27 0 41.667s3.806-8.334 8.5-8.334H17v8.334C17 46.269 13.194 50 8.5 50Z" fill="#8C8C8C"/><path d="M25.5 16.667H17V0h8.5C30.194 0 34 3.731 34 8.333c0 4.603-3.806 8.334-8.5 8.334Z" fill="#FCFCFC"/><path d="M25.5 33.333c4.694 0 8.5-3.73 8.5-8.333 0-4.602-3.806-8.333-8.5-8.333S17 20.397 17 25c0 4.602 3.806 8.333 8.5 8.333Z" fill="#A8A8A8"/><path d="M44.651 36V14.182h14.894v4.283h-9.62v4.474h8.672v4.293h-8.672V36H44.65Zm17.55 0V19.636h5.209V36H62.2Zm2.61-18.27c-.732 0-1.36-.242-1.887-.725-.525-.49-.788-1.08-.788-1.768 0-.682.263-1.265.788-1.748a2.67 2.67 0 0 1 1.886-.735c.739 0 1.367.245 1.886.735.525.483.788 1.066.788 1.747 0 .69-.263 1.279-.788 1.769-.519.483-1.147.724-1.886.724Zm13.542 24.747c-1.555 0-2.887-.216-3.995-.65-1.108-.433-1.978-1.026-2.61-1.779a4.925 4.925 0 0 1-1.14-2.556l4.933-.277c.092.333.263.624.511.873.256.249.586.44.991.575.412.135.895.203 1.449.203.873 0 1.594-.213 2.162-.64.576-.419.863-1.154.863-2.205v-2.876h-.18a3.876 3.876 0 0 1-.938 1.353c-.42.398-.941.71-1.566.937-.618.228-1.328.341-2.13.341-1.194 0-2.288-.277-3.282-.83-.987-.562-1.78-1.428-2.376-2.6-.59-1.18-.884-2.695-.884-4.55 0-1.91.305-3.483.916-4.719.61-1.243 1.41-2.162 2.397-2.759a6.125 6.125 0 0 1 3.207-.895c.86 0 1.594.15 2.205.448A4.519 4.519 0 0 1 80.409 21c.398.462.7.941.906 1.438h.15v-2.802h5.187v16.428c0 1.385-.348 2.553-1.044 3.505-.696.952-1.669 1.672-2.919 2.162-1.25.498-2.695.746-4.336.746Zm.16-10.493c.632 0 1.172-.167 1.62-.501.447-.334.791-.813 1.033-1.438.241-.625.362-1.375.362-2.248 0-.888-.12-1.651-.362-2.29-.234-.647-.579-1.144-1.034-1.492-.447-.348-.987-.522-1.619-.522-.646 0-1.193.178-1.64.533-.448.355-.789.855-1.023 1.502-.227.639-.341 1.395-.341 2.269 0 .873.117 1.623.351 2.248.235.625.572 1.104 1.013 1.438.447.334.994.5 1.64.5ZM89.973 36V19.636h4.954v3.005h.181c.341-.995.917-1.78 1.726-2.355.81-.575 1.776-.863 2.898-.863 1.136 0 2.109.292 2.919.874a3.825 3.825 0 0 1 1.545 2.344h.17c.306-.973.902-1.751 1.79-2.333.888-.59 1.935-.885 3.143-.885 1.548 0 2.805.498 3.771 1.492.966.987 1.449 2.344 1.449 4.07V36h-5.21v-9.822c0-.817-.209-1.439-.628-1.865-.419-.433-.962-.65-1.63-.65-.717 0-1.282.235-1.694.703-.405.462-.607 1.084-.607 1.865V36h-5.007v-9.876c0-.76-.206-1.36-.618-1.8-.412-.44-.955-.66-1.63-.66-.455 0-.856.11-1.204.33a2.195 2.195 0 0 0-.82.916c-.192.398-.288.866-.288 1.406V36h-5.21Zm32.387.277c-1.044 0-1.971-.174-2.781-.522a4.336 4.336 0 0 1-1.907-1.598c-.461-.717-.692-1.616-.692-2.695 0-.91.16-1.677.479-2.302a4.1 4.1 0 0 1 1.321-1.523 6.22 6.22 0 0 1 1.939-.884 12.606 12.606 0 0 1 2.344-.416c.93-.085 1.68-.174 2.248-.266.568-.1.98-.238 1.236-.416a.898.898 0 0 0 .394-.777v-.053c0-.547-.188-.97-.565-1.268-.376-.298-.884-.448-1.523-.448-.689 0-1.243.15-1.662.448-.419.298-.685.71-.799 1.236l-4.805-.17a5.686 5.686 0 0 1 1.097-2.664c.597-.788 1.414-1.406 2.451-1.854 1.044-.454 2.297-.682 3.76-.682 1.044 0 2.007.125 2.887.373.881.242 1.648.597 2.302 1.066a4.817 4.817 0 0 1 1.512 1.704c.363.675.544 1.445.544 2.312V36h-4.901v-2.28h-.128a4.648 4.648 0 0 1-1.118 1.406 4.464 4.464 0 0 1-1.588.863c-.603.192-1.285.288-2.045.288Zm1.609-3.41c.561 0 1.065-.113 1.512-.34.455-.227.817-.54 1.087-.938.27-.404.405-.873.405-1.406v-1.555c-.149.078-.33.149-.543.213a9.396 9.396 0 0 1-.682.181c-.249.057-.505.107-.767.15-.263.042-.515.08-.757.116-.49.078-.909.2-1.257.363a1.977 1.977 0 0 0-.788.639 1.563 1.563 0 0 0-.267.916c0 .54.192.952.576 1.236.39.284.884.426 1.481.426Z" fill="#fff"/></svg>