<svg width="166" height="50" fill="none" xmlns="http://www.w3.org/2000/svg"><path d="M25 0C11.194 0 0 11.369 0 25.392 0 37.288 8.067 47.245 18.942 50a3.757 3.757 0 0 1-.192-1.234v-4.34h-3.142c-1.71 0-3.23-.746-3.968-2.134-.82-1.543-.96-3.902-2.99-5.345-.602-.48-.144-1.029.55-.955 1.281.369 2.344 1.262 3.344 2.586.996 1.327 1.464 1.627 3.325 1.627.902 0 2.252-.053 3.523-.256.683-1.762 1.864-3.385 3.308-4.151-8.325-.87-12.298-5.077-12.298-10.787 0-2.46 1.031-4.837 2.783-6.841-.575-1.99-1.298-6.046.221-7.59 3.746 0 6.01 2.467 6.554 3.133a18.474 18.474 0 0 1 6.071-1.017c2.159 0 4.217.368 6.088 1.022.537-.663 2.804-3.138 6.558-3.138 1.525 1.546.794 5.62.213 7.604 1.741 2 2.766 4.372 2.766 6.827 0 5.706-3.966 9.91-12.279 10.785 2.288 1.212 3.956 4.619 3.956 7.185v5.785c0 .22-.048.38-.073.568C43.002 45.864 50 36.47 50 25.39 50 11.37 38.806 0 25 0ZM75.97 21.309a3.83 3.83 0 0 0-.533-1.183 3.407 3.407 0 0 0-.863-.884 3.7 3.7 0 0 0-1.172-.543 5.18 5.18 0 0 0-1.449-.192c-1.058 0-1.974.256-2.749.767-.766.511-1.36 1.257-1.779 2.237-.419.973-.628 2.156-.628 3.548 0 1.4.202 2.592.607 3.58.405.987.99 1.74 1.758 2.258.767.519 1.697.778 2.791.778.966 0 1.783-.157 2.45-.469.675-.32 1.186-.77 1.534-1.353.349-.582.523-1.268.523-2.056l.98.117h-5.306v-3.846h9.407v2.887c0 1.953-.415 3.626-1.246 5.018a8.29 8.29 0 0 1-3.41 3.207c-1.441.745-3.1 1.118-4.975 1.118-2.08 0-3.91-.45-5.486-1.353-1.577-.902-2.805-2.187-3.686-3.856-.88-1.676-1.321-3.665-1.321-5.966 0-1.79.266-3.377.799-4.762.533-1.392 1.275-2.571 2.226-3.537a9.622 9.622 0 0 1 3.324-2.195c1.264-.497 2.625-.745 4.08-.745 1.265 0 2.44.18 3.527.543a9.42 9.42 0 0 1 2.898 1.534 8.132 8.132 0 0 1 2.056 2.354c.525.91.852 1.907.98 2.994h-5.338ZM85.674 36V19.636h5.21V36h-5.21Zm2.61-18.27c-.732 0-1.36-.242-1.886-.725-.525-.49-.788-1.08-.788-1.768 0-.682.263-1.265.788-1.748a2.67 2.67 0 0 1 1.886-.735c.738 0 1.367.245 1.886.735.525.483.788 1.066.788 1.747 0 .69-.263 1.279-.788 1.769-.519.483-1.148.724-1.886.724Zm15.152 1.906v3.836H93.114v-3.836h10.323Zm-8.16-3.92h5.209v15.138c0 .32.049.58.149.778.106.192.259.33.458.416.199.078.437.117.714.117.199 0 .408-.018.628-.053.227-.043.398-.079.512-.107l.788 3.76c-.249.072-.6.16-1.055.267a8.747 8.747 0 0 1-1.608.202c-1.222.057-2.27-.085-3.143-.426-.867-.348-1.53-.888-1.992-1.62-.455-.73-.675-1.65-.66-2.758V15.716ZM106.445 36V14.182h5.274v8.757h8.597v-8.757h5.263V36h-5.263v-8.768h-8.597V36h-5.274Zm32.999-7.063v-9.3h5.199V36h-4.964v-3.047h-.171a4.756 4.756 0 0 1-1.854 2.386c-.866.583-1.914.874-3.142.874-1.115 0-2.096-.256-2.941-.767a5.228 5.228 0 0 1-1.971-2.141c-.468-.924-.706-2.003-.713-3.239v-10.43h5.209v9.407c.007.888.242 1.588.703 2.099.462.511 1.09.767 1.886.767.518 0 .984-.113 1.395-.34.42-.235.75-.573.991-1.013.249-.447.373-.987.373-1.62ZM147.96 36V14.182h5.209v8.256h.107c.213-.497.515-.976.905-1.438a4.547 4.547 0 0 1 1.513-1.13c.618-.298 1.357-.447 2.216-.447 1.137 0 2.198.299 3.186.895.994.597 1.796 1.516 2.407 2.76.611 1.242.916 2.826.916 4.75 0 1.855-.294 3.406-.884 4.656-.582 1.25-1.371 2.188-2.365 2.813-.987.625-2.084.937-3.292.937-.824 0-1.537-.135-2.141-.404a4.659 4.659 0 0 1-1.524-1.066 5.128 5.128 0 0 1-.937-1.417h-.16V36h-5.156Zm5.103-8.182c0 .88.117 1.648.351 2.301.242.654.586 1.162 1.034 1.524.454.355.998.532 1.63.532.639 0 1.182-.177 1.63-.532.447-.363.785-.87 1.012-1.524.234-.653.351-1.42.351-2.3 0-.881-.117-1.645-.351-2.291-.227-.647-.565-1.147-1.012-1.502-.441-.355-.984-.533-1.63-.533-.639 0-1.183.174-1.63.522-.448.348-.792.845-1.034 1.491-.234.647-.351 1.417-.351 2.312Z" fill="#fff"/></svg>