<svg width="124" height="50" fill="none" xmlns="http://www.w3.org/2000/svg"><path d="M44 0H0l3.882 44.737L22 50l18.118-5.263L44 0Z" fill="#fff"/><path d="M22 4.082v41.836l14.715-4.196L40 4.082H22Z" fill="#B9B9B9"/><path d="M22 26.272v-5.356h11.217l-.913 15.399L22 39.794v-5.623l5.348-1.874.391-6.026H22ZM33.609 15.56 34 10.204H22v5.356h11.609ZM22 34.172v5.624l-10.418-3.481-.527-7.365h5.275l.263 3.348L22 34.172ZM15.539 15.56H22v-5.356H10l.923 16.068H22v-5.356h-6.066l-.395-5.356Z" fill="#000"/><path d="M54.651 36V14.182h5.274v8.757h8.597v-8.757h5.263V36h-5.263v-8.768h-8.597V36H54.65ZM86.33 19.636v3.836H76.006v-3.836h10.323Zm-8.16-3.92h5.21v15.138c0 .32.049.58.148.778.107.192.26.33.458.416.2.078.437.117.714.117.2 0 .409-.018.629-.053.227-.043.397-.079.511-.107l.788 3.76c-.248.072-.6.16-1.054.267a8.76 8.76 0 0 1-1.609.202c-1.221.057-2.269-.085-3.143-.426-.866-.348-1.53-.888-1.992-1.62-.454-.73-.674-1.65-.66-2.758V15.716ZM88.987 36V19.636h4.954v3.005h.181c.341-.995.916-1.78 1.726-2.355.81-.575 1.776-.863 2.898-.863 1.136 0 2.109.292 2.919.874a3.834 3.834 0 0 1 1.545 2.344h.17c.305-.973.902-1.751 1.79-2.333.888-.59 1.935-.885 3.142-.885 1.549 0 2.806.498 3.772 1.492.966.987 1.449 2.344 1.449 4.07V36h-5.21v-9.822c0-.817-.209-1.439-.628-1.865-.419-.433-.963-.65-1.63-.65-.718 0-1.282.235-1.694.703-.405.462-.608 1.084-.608 1.865V36h-5.007v-9.876c0-.76-.206-1.36-.618-1.8-.411-.44-.955-.66-1.63-.66-.454 0-.855.11-1.203.33a2.194 2.194 0 0 0-.82.916c-.192.398-.288.866-.288 1.406V36h-5.21Zm32.983-21.818V36h-5.209V14.182h5.209Z" fill="#fff"/></svg>