<svg width="220" height="50" fill="none" xmlns="http://www.w3.org/2000/svg"><path d="M0 50V0h50v50H0Z" fill="#fff"/><path d="M32.692 37.426c.96 1.561 2.005 3.057 4.218 3.057 1.858 0 2.833-.923 2.833-2.201 0-1.53-1.008-2.072-3.053-2.963l-1.12-.477c-3.235-1.373-5.387-3.092-5.387-6.724 0-3.347 2.563-5.894 6.567-5.894 2.851 0 4.9.987 6.378 3.573l-3.492 2.232c-.768-1.372-1.599-1.912-2.886-1.912-1.314 0-2.146.829-2.146 1.912 0 1.339.833 1.88 2.757 2.71l1.12.478c3.813 1.623 5.963 3.282 5.963 7.01 0 4.016-3.172 6.217-7.43 6.217-4.166 0-6.53-2.09-7.847-4.677l3.525-2.34ZM16.6 37.54c.703 1.259 1.77 2.227 3.307 2.227 1.47 0 2.315-.58 2.315-2.838V22.222h4.63V37.64c0 4.677-2.713 6.804-6.674 6.804-3.58 0-6.163-2.425-7.216-4.677L16.6 37.54Z" fill="#000001"/><path d="M70.515 14.182h5.199v15.085c-.007 1.413-.345 2.65-1.012 3.707-.668 1.052-1.591 1.868-2.77 2.45-1.172.583-2.529.874-4.07.874-1.363 0-2.603-.238-3.718-.714a5.899 5.899 0 0 1-2.653-2.215c-.653-1.002-.976-2.284-.969-3.846h5.252c.022.56.128 1.04.32 1.438.199.39.472.685.82.884.348.199.764.299 1.246.299.505 0 .93-.107 1.279-.32.348-.22.61-.544.788-.97.185-.426.28-.955.288-1.587V14.182Zm13.122 22.095c-1.044 0-1.97-.174-2.78-.522a4.331 4.331 0 0 1-1.907-1.598c-.462-.717-.693-1.616-.693-2.695 0-.91.16-1.677.48-2.302.32-.625.76-1.132 1.32-1.523a6.215 6.215 0 0 1 1.94-.884 12.597 12.597 0 0 1 2.343-.416c.93-.085 1.68-.174 2.248-.266.568-.1.98-.238 1.236-.416a.896.896 0 0 0 .394-.777v-.053c0-.547-.188-.97-.564-1.268-.377-.298-.885-.448-1.524-.448-.689 0-1.243.15-1.662.448-.419.298-.685.71-.799 1.236l-4.804-.17a5.682 5.682 0 0 1 1.097-2.664c.596-.788 1.413-1.406 2.45-1.854 1.044-.454 2.298-.682 3.76-.682 1.045 0 2.007.125 2.888.373.88.242 1.648.597 2.301 1.066a4.818 4.818 0 0 1 1.513 1.704c.362.675.543 1.445.543 2.312V36h-4.9v-2.28h-.128a4.645 4.645 0 0 1-1.119 1.406 4.459 4.459 0 0 1-1.587.863c-.604.192-1.286.288-2.046.288Zm1.609-3.41c.561 0 1.065-.113 1.513-.34.454-.227.817-.54 1.086-.938.27-.404.405-.873.405-1.406v-1.555c-.149.078-.33.149-.543.213a9.31 9.31 0 0 1-.682.181 12.21 12.21 0 0 1-.767.15c-.263.042-.515.08-.756.116-.49.078-.91.2-1.257.363-.341.163-.604.376-.789.639a1.566 1.566 0 0 0-.266.916c0 .54.192.952.575 1.236.39.284.884.426 1.48.426Zm26.644-13.23L106.276 36h-5.966l-5.604-16.364h5.487l3.015 11.272h.17l3.026-11.272h5.486Zm6.171 16.64c-1.044 0-1.971-.174-2.78-.522a4.325 4.325 0 0 1-1.907-1.598c-.462-.717-.693-1.616-.693-2.695 0-.91.16-1.677.48-2.302a4.083 4.083 0 0 1 1.321-1.523 6.214 6.214 0 0 1 1.938-.884 12.606 12.606 0 0 1 2.344-.416c.931-.085 1.68-.174 2.248-.266.568-.1.98-.238 1.236-.416a.895.895 0 0 0 .394-.777v-.053c0-.547-.188-.97-.565-1.268-.376-.298-.884-.448-1.523-.448-.689 0-1.243.15-1.662.448-.419.298-.685.71-.799 1.236l-4.805-.17a5.677 5.677 0 0 1 1.098-2.664c.596-.788 1.413-1.406 2.45-1.854 1.044-.454 2.298-.682 3.761-.682 1.044 0 2.006.125 2.887.373.88.242 1.647.597 2.301 1.066a4.83 4.83 0 0 1 1.513 1.704c.362.675.543 1.445.543 2.312V36h-4.901v-2.28h-.128a4.648 4.648 0 0 1-1.118 1.406 4.468 4.468 0 0 1-1.587.863c-.604.192-1.286.288-2.046.288Zm1.609-3.41c.561 0 1.065-.113 1.513-.34a2.8 2.8 0 0 0 1.086-.938c.27-.404.405-.873.405-1.406v-1.555c-.149.078-.33.149-.543.213a9.396 9.396 0 0 1-.682.181c-.249.057-.504.107-.767.15-.263.042-.515.08-.757.116-.49.078-.909.2-1.257.363a1.984 1.984 0 0 0-.788.639 1.563 1.563 0 0 0-.266.916c0 .54.191.952.575 1.236.391.284.884.426 1.481.426Zm23.15-12.144c-.071-.781-.387-1.389-.949-1.822-.554-.44-1.345-.66-2.375-.66-.682 0-1.25.088-1.705.266-.454.178-.795.423-1.023.735a1.775 1.775 0 0 0-.351 1.055c-.014.327.05.614.192.863.149.248.362.469.639.66.284.185.625.348 1.023.49.397.142.845.267 1.342.373l1.875.426c1.079.235 2.031.547 2.855.938.831.39 1.527.856 2.088 1.395.568.54.998 1.162 1.289 1.865.291.703.441 1.491.448 2.365-.007 1.378-.355 2.56-1.044 3.547-.689.988-1.68 1.744-2.973 2.27-1.285.525-2.837.788-4.655.788-1.826 0-3.416-.273-4.773-.82-1.357-.547-2.411-1.378-3.164-2.493-.753-1.115-1.14-2.525-1.161-4.23h5.049c.043.703.231 1.29.565 1.758.334.469.792.824 1.374 1.066.59.241 1.272.362 2.046.362.71 0 1.314-.096 1.811-.288.504-.192.891-.458 1.161-.799.27-.34.409-.731.416-1.172a1.613 1.613 0 0 0-.384-1.055c-.248-.298-.632-.553-1.15-.767-.512-.22-1.165-.422-1.961-.607l-2.28-.532c-1.889-.434-3.377-1.133-4.463-2.1-1.087-.972-1.627-2.286-1.62-3.94-.007-1.35.355-2.533 1.087-3.549.732-1.015 1.744-1.807 3.036-2.375 1.293-.568 2.767-.853 4.421-.853 1.691 0 3.157.288 4.4.863 1.25.569 2.22 1.368 2.909 2.397.689 1.03 1.04 2.223 1.054 3.58h-5.049Zm15.649 15.586c-1.725 0-3.206-.355-4.442-1.065a7.208 7.208 0 0 1-2.834-2.962c-.66-1.271-.991-2.741-.991-4.41 0-1.677.331-3.147.991-4.411a7.263 7.263 0 0 1 2.845-2.972c1.235-.71 2.709-1.066 4.421-1.066 1.513 0 2.83.274 3.952.82 1.129.548 2.01 1.322 2.642 2.323.639.994.977 2.163 1.012 3.505h-4.868c-.1-.838-.384-1.495-.853-1.97-.461-.477-1.065-.715-1.811-.715-.603 0-1.132.17-1.587.512-.455.334-.81.83-1.065 1.491-.249.654-.373 1.463-.373 2.43 0 .965.124 1.782.373 2.45.255.66.61 1.16 1.065 1.502.455.333.984.5 1.587.5.483 0 .909-.103 1.279-.309.376-.206.685-.508.927-.905.241-.405.394-.895.458-1.47h4.868c-.049 1.35-.387 2.528-1.012 3.537-.618 1.008-1.488 1.793-2.61 2.354-1.115.554-2.439.83-3.974.83ZM168.731 36V19.636h5.061v2.983h.17c.298-1.08.785-1.882 1.46-2.407.674-.533 1.459-.8 2.354-.8.242 0 .49.018.746.054.256.028.493.075.714.138v4.528a5.002 5.002 0 0 0-.98-.202 8.696 8.696 0 0 0-1.066-.075c-.618 0-1.175.139-1.672.416-.49.27-.878.65-1.162 1.14-.277.482-.415 1.05-.415 1.704V36h-5.21Zm12.627 0V19.636h5.21V36h-5.21Zm2.61-18.27a2.69 2.69 0 0 1-1.885-.725c-.526-.49-.789-1.08-.789-1.768 0-.682.263-1.265.789-1.748a2.667 2.667 0 0 1 1.885-.735c.739 0 1.368.245 1.886.735.526.483.788 1.066.788 1.747 0 .69-.262 1.279-.788 1.769-.518.483-1.147.724-1.886.724Zm5.916 24.406v-22.5h5.156v2.802h.16c.213-.497.515-.976.905-1.438a4.547 4.547 0 0 1 1.513-1.13c.618-.298 1.357-.447 2.216-.447a6.05 6.05 0 0 1 3.185.895c.995.597 1.797 1.516 2.408 2.76.611 1.242.916 2.826.916 4.75 0 1.855-.295 3.406-.884 4.656-.582 1.25-1.371 2.188-2.365 2.813-.987.625-2.085.937-3.292.937-.824 0-1.538-.135-2.141-.404a4.659 4.659 0 0 1-1.524-1.066 5.106 5.106 0 0 1-.937-1.417h-.107v8.79h-5.209Zm5.103-14.318c0 .88.117 1.648.351 2.301.242.654.586 1.162 1.034 1.524.454.355.997.532 1.63.532.639 0 1.182-.177 1.63-.532.447-.363.784-.87 1.012-1.524.234-.653.351-1.42.351-2.3 0-.881-.117-1.645-.351-2.291-.228-.647-.565-1.147-1.012-1.502-.441-.355-.984-.533-1.63-.533-.64 0-1.183.174-1.63.522-.448.348-.792.845-1.034 1.491-.234.647-.351 1.417-.351 2.312Zm23.323-8.182v3.836h-10.323v-3.836h10.323Zm-8.161-3.92h5.21v15.138c0 .32.049.58.149.778.106.192.259.33.458.416.199.078.437.117.714.117.199 0 .408-.018.628-.053.228-.043.398-.079.512-.107l.788 3.76c-.249.072-.6.16-1.055.267a8.747 8.747 0 0 1-1.608.202c-1.222.057-2.27-.085-3.143-.426-.867-.348-1.531-.888-1.992-1.62-.455-.73-.675-1.65-.661-2.758V15.716Z" fill="#fff"/></svg>