<svg width="140" height="50" fill="none" xmlns="http://www.w3.org/2000/svg"><path d="M1.048 0a.988.988 0 0 0-.741.349A1.278 1.278 0 0 0 0 1.19V48.816a1.349 1.349 0 0 0 .01.14 1.335 1.335 0 0 0 .037.204 1.284 1.284 0 0 0 .088.228 1.23 1.23 0 0 0 .186.28c.023.023.046.046.07.067l.006.007c.024.021.048.041.074.06l.014.012a3.947 3.947 0 0 0 .088.056.982.982 0 0 0 .417.128h.02a.907.907 0 0 0 .068.002h41.875c.207 0 .41-.07.581-.2a1.17 1.17 0 0 0 .386-.535c.08-.218.1-.457.06-.688-.04-.23-.14-.443-.287-.61L23.482 25 43.693 2.032c.147-.166.247-.378.287-.61.04-.23.02-.47-.06-.687a1.17 1.17 0 0 0-.386-.534.96.96 0 0 0-.581-.201H1.048Zm1.047 2.381h16.329L2.095 20.936V2.38Zm19.291 0h19.038L21.259 24.158 2.095 45.935V24.302L21.386 2.381ZM22 26.683 40.424 47.62H3.577L22 26.683ZM54.651 36V14.182h5.274v9.226h.287l7.213-9.226h6.21l-7.734 9.737L73.774 36h-6.307l-5.433-8.576-2.11 2.663V36h-5.273Zm27.502.309c-1.719 0-3.196-.352-4.432-1.055a7.277 7.277 0 0 1-2.844-2.961c-.66-1.272-.991-2.745-.991-4.422 0-1.683.33-3.156.99-4.42a7.191 7.191 0 0 1 2.845-2.962c1.236-.71 2.713-1.066 4.432-1.066 1.719 0 3.192.355 4.421 1.066a7.104 7.104 0 0 1 2.845 2.961c.667 1.265 1.001 2.738 1.001 4.421 0 1.677-.334 3.15-1.001 4.422a7.188 7.188 0 0 1-2.845 2.961c-1.228.703-2.702 1.055-4.42 1.055Zm.032-3.931c.625 0 1.154-.192 1.587-.575.434-.384.764-.917.991-1.599.234-.681.352-1.47.352-2.364 0-.91-.117-1.705-.352-2.387-.227-.682-.557-1.214-.99-1.598-.434-.383-.963-.575-1.588-.575-.646 0-1.193.192-1.64.575-.441.384-.778.916-1.013 1.598-.227.682-.34 1.477-.34 2.387 0 .894.113 1.683.34 2.364.235.682.572 1.215 1.012 1.599.448.383.995.575 1.641.575Zm20.14-12.742v3.836H92.002v-3.836h10.323Zm-8.16-3.92h5.21v15.138c0 .32.049.58.148.778.107.192.26.33.459.416.198.078.436.117.713.117.199 0 .409-.018.629-.053.227-.043.398-.079.511-.107l.789 3.76c-.249.072-.601.16-1.055.267a8.77 8.77 0 0 1-1.609.202c-1.221.057-2.269-.085-3.142-.426-.867-.348-1.531-.888-1.993-1.62-.454-.73-.674-1.65-.66-2.758V15.716Zm16.379-1.534V36h-5.209V14.182h5.209ZM113.86 36V19.636h5.21V36h-5.21Zm2.61-18.27a2.69 2.69 0 0 1-1.885-.725c-.526-.49-.789-1.08-.789-1.768 0-.682.263-1.265.789-1.748a2.667 2.667 0 0 1 1.885-.735c.739 0 1.368.245 1.886.735.526.483.788 1.066.788 1.747 0 .69-.262 1.279-.788 1.769-.518.483-1.147.724-1.886.724Zm11.125 8.938V36h-5.209V19.636h4.953v3.005h.182a4.595 4.595 0 0 1 1.853-2.355c.874-.575 1.914-.863 3.122-.863 1.15 0 2.148.26 2.993.778.853.511 1.513 1.229 1.982 2.152.476.916.71 1.989.703 3.217V36h-5.21v-9.407c.008-.91-.223-1.62-.692-2.13-.462-.512-1.104-.768-1.928-.768-.547 0-1.03.121-1.449.363a2.4 2.4 0 0 0-.959 1.012c-.22.44-.334.973-.341 1.598Z" fill="#fff"/></svg>