<svg width="166" height="50" fill="none" xmlns="http://www.w3.org/2000/svg"><path d="M45.912 39.652c.024-.255.407-3.696-.455-5.301-1.795 5.155-3.59 9.873-8.821 13.217.742-1.52 1.939-3.952 3.136-7.6C36.18 44.832 28.999 49.696 23.612 50c3.64-2.043 5.686-4.67 6.584-6.384 0 0-2.095.608-4.644.912 3.447-2.128 5.841-5.922 4.644-11.855-2.394 7.6-5.686 10.031-10.03 10.481-4.334.462-8.224-1.824-8.224-1.824l1.497-.146s-3.89-3.04-2.538-6.991a3.7 3.7 0 0 1 .216-.548c.981-2.213 4.32-1.094 3.973 1.301v.013s1.042 2.881 3.879 2.115a22.552 22.552 0 0 0 1.508-3.04l.443 1.983s2.094-.912 2.094-2.59c1.796.693 2.25 1.556 2.358 1.933-.31-1.702-3.016-13.412-17.344-13.242l-2.501 2.36c-.168.157-.431.023-.407-.195l.191-1.946.168-.17c-.048.012-.108 0-.156 0l-.012.17-.981.924c-.168.158-.431.024-.407-.194l.12-1.24c-2.083-.9-2.275-3.284-2.275-3.284s-2.597-.741-1.496-4.11c.599-1.824 2.035-2.006 2.645-1.86.778.182 1.58.194 2.322-.11 1.078-.437 2.454-1.276 3.412-2.893 1.795-3.04 4.488-4.256 10.318-4.256 7.72 0 10.832 2.407 11.191 2.7-.215-.256-1.52-2.02 1.233-4.67C34.11.717 33.619.097 33.512 0c.407.122 5.685 1.946 6.26 8.962.598 7.295-7.78 8.815-7.78 8.815s10.772 2.128 10.916-8.207c2.106 1.216 6.44 5.775 7.038 15.661.586 9.582-3.782 14.166-4.034 14.421ZM79.22 14.182V36h-4.474l-8.683-12.592h-.138V36H60.65V14.182h4.539l8.586 12.57h.181v-12.57h5.263Zm10.965 22.127c-1.712 0-3.189-.337-4.432-1.012a7 7 0 0 1-2.855-2.908c-.66-1.265-.99-2.767-.99-4.507 0-1.69.333-3.168 1-4.432a7.231 7.231 0 0 1 2.824-2.961c1.215-.71 2.646-1.066 4.293-1.066 1.165 0 2.23.181 3.196.544a6.87 6.87 0 0 1 2.504 1.608c.703.71 1.25 1.588 1.64 2.632.391 1.037.587 2.226.587 3.569v1.3H83.728V26.05h9.375a2.935 2.935 0 0 0-.394-1.481 2.679 2.679 0 0 0-1.055-1.012c-.44-.249-.948-.373-1.523-.373-.583 0-1.105.131-1.566.394a2.899 2.899 0 0 0-1.097 1.055c-.27.44-.412.94-.427 1.502v3.079c0 .667.132 1.253.395 1.758.262.497.635.884 1.118 1.16.483.278 1.058.416 1.726.416.462 0 .88-.064 1.257-.192.377-.127.7-.316.97-.564.27-.249.472-.554.607-.916l4.783.138a5.919 5.919 0 0 1-1.31 2.802c-.668.788-1.545 1.403-2.631 1.843-1.087.433-2.344.65-3.772.65Zm24.713-11.676-4.783.128a1.788 1.788 0 0 0-.405-.906c-.22-.27-.508-.48-.863-.628-.348-.157-.753-.235-1.214-.235-.604 0-1.119.12-1.545.362-.419.242-.625.569-.618.98-.007.32.121.597.384.832.27.234.749.422 1.438.564l3.153.597c1.634.312 2.848.83 3.644 1.555.802.724 1.207 1.683 1.214 2.877-.007 1.122-.341 2.098-1.001 2.93-.654.83-1.548 1.477-2.685 1.938-1.136.455-2.436.682-3.899.682-2.337 0-4.18-.48-5.529-1.438-1.342-.966-2.109-2.259-2.301-3.878l5.145-.128c.114.597.409 1.051.885 1.364.475.312 1.083.468 1.821.468.668 0 1.211-.124 1.63-.372.419-.249.632-.58.64-.991-.008-.37-.171-.664-.491-.884-.319-.228-.82-.405-1.502-.533l-2.855-.543c-1.64-.299-2.862-.85-3.665-1.652-.802-.81-1.2-1.84-1.193-3.09-.007-1.093.284-2.027.874-2.801.589-.781 1.427-1.378 2.514-1.79 1.087-.412 2.369-.618 3.846-.618 2.216 0 3.963.466 5.241 1.396 1.279.923 1.985 2.195 2.12 3.814Zm12.207-4.997v3.836h-10.324v-3.836h10.324Zm-8.161-3.92h5.21v15.138c0 .32.049.58.149.778.106.192.259.33.458.416.199.078.437.117.714.117.198 0 .408-.018.628-.053.227-.043.398-.079.512-.107l.788 3.76c-.249.072-.6.16-1.055.267a8.747 8.747 0 0 1-1.608.202c-1.222.057-2.27-.085-3.143-.426-.867-.348-1.531-.888-1.992-1.62-.455-.73-.675-1.65-.661-2.758V15.716Zm19.682-1.534h5.199v15.085c-.007 1.413-.344 2.65-1.012 3.707-.668 1.052-1.591 1.868-2.77 2.45-1.172.583-2.528.874-4.069.874-1.364 0-2.603-.238-3.718-.714a5.897 5.897 0 0 1-2.653-2.215c-.654-1.002-.977-2.284-.97-3.846h5.252c.022.56.128 1.04.32 1.438.199.39.472.685.82.884.348.199.764.299 1.247.299.504 0 .93-.107 1.278-.32.348-.22.611-.544.789-.97.184-.426.28-.955.287-1.587V14.182Zm20.303 6.541c-.071-.781-.387-1.389-.948-1.822-.554-.44-1.346-.66-2.376-.66-.682 0-1.25.088-1.704.266-.455.178-.796.423-1.023.735a1.776 1.776 0 0 0-.352 1.055c-.014.327.05.614.192.863.149.248.362.469.639.66.284.185.625.348 1.023.49.398.142.845.267 1.342.373l1.875.426c1.08.235 2.032.547 2.855.938.831.39 1.527.856 2.088 1.395.569.54.998 1.162 1.29 1.865.291.703.44 1.491.447 2.365-.007 1.378-.355 2.56-1.044 3.547-.689.988-1.68 1.744-2.972 2.27-1.286.525-2.838.788-4.656.788-1.825 0-3.416-.273-4.773-.82-1.356-.547-2.411-1.378-3.164-2.493-.753-1.115-1.14-2.525-1.161-4.23h5.05c.042.703.231 1.29.564 1.758.334.469.792.824 1.375 1.066.589.241 1.271.362 2.045.362.71 0 1.314-.096 1.811-.288.505-.192.892-.458 1.161-.799.27-.34.409-.731.416-1.172a1.613 1.613 0 0 0-.384-1.055c-.248-.298-.632-.553-1.15-.767-.511-.22-1.165-.422-1.96-.607l-2.28-.532c-1.889-.434-3.377-1.133-4.464-2.1-1.087-.972-1.626-2.286-1.619-3.94-.007-1.35.355-2.533 1.086-3.549.732-1.015 1.744-1.807 3.037-2.375 1.292-.568 2.766-.853 4.421-.853 1.69 0 3.157.288 4.4.863 1.25.569 2.219 1.368 2.908 2.397.689 1.03 1.04 2.223 1.055 3.58h-5.05Z" fill="#fff"/></svg>