<svg width="166" height="50" fill="none" xmlns="http://www.w3.org/2000/svg"><path d="M18.718 34.375a1.875 1.875 0 1 1-3.75 0v-17.5a1.874 1.874 0 0 1 3.405-1.084l20.97 29.63C45.772 40.886 50 33.42 50 25 50 11.25 38.75 0 25 0S0 11.25 0 25s11.25 25 25 25c3.99 0 7.758-.971 11.112-2.653L18.717 22.77v11.605Zm12.5-18.75a1.875 1.875 0 1 1 3.75 0v17.3l-3.75-5.284V15.625ZM79.22 14.182V36h-4.474l-8.683-12.592h-.138V36H60.65V14.182h4.539l8.586 12.57h.181v-12.57h5.263Zm10.965 22.127c-1.712 0-3.189-.337-4.432-1.012a7 7 0 0 1-2.855-2.908c-.66-1.265-.99-2.767-.99-4.507 0-1.69.333-3.168 1-4.432a7.231 7.231 0 0 1 2.824-2.961c1.215-.71 2.646-1.066 4.293-1.066 1.165 0 2.23.181 3.196.544a6.87 6.87 0 0 1 2.504 1.608c.703.71 1.25 1.588 1.64 2.632.391 1.037.587 2.226.587 3.569v1.3H83.728V26.05h9.375a2.935 2.935 0 0 0-.394-1.481 2.679 2.679 0 0 0-1.055-1.012c-.44-.249-.948-.373-1.523-.373-.583 0-1.105.131-1.566.394a2.899 2.899 0 0 0-1.097 1.055c-.27.44-.412.94-.427 1.502v3.079c0 .667.132 1.253.395 1.758.262.497.635.884 1.118 1.16.483.278 1.058.416 1.726.416.462 0 .88-.064 1.257-.192.377-.127.7-.316.97-.564.27-.249.472-.554.607-.916l4.783.138a5.919 5.919 0 0 1-1.31 2.802c-.668.788-1.545 1.403-2.631 1.843-1.087.433-2.344.65-3.772.65Zm14.625-16.673 2.695 5.391 2.791-5.39h5.252l-4.57 8.181L115.719 36h-5.21l-3.004-5.433-2.93 5.433h-5.284l4.752-8.182-4.517-8.182h5.284Zm22.353 0v3.836H116.84v-3.836h10.323Zm-8.16-3.92h5.209v15.138c0 .32.05.58.149.778.107.192.26.33.458.416.199.078.437.117.714.117.199 0 .409-.018.629-.053a9.66 9.66 0 0 0 .511-.107l.788 3.76c-.248.072-.6.16-1.054.267a8.77 8.77 0 0 1-1.609.202c-1.221.057-2.269-.085-3.143-.426-.866-.348-1.53-.888-1.992-1.62-.454-.73-.675-1.65-.66-2.758V15.716Zm19.682-1.534h5.199v15.085c-.007 1.413-.345 2.65-1.012 3.707-.668 1.052-1.591 1.868-2.77 2.45-1.172.583-2.529.874-4.07.874-1.363 0-2.603-.238-3.718-.714a5.902 5.902 0 0 1-2.653-2.215c-.653-1.002-.976-2.284-.969-3.846h5.252c.021.56.128 1.04.32 1.438.199.39.472.685.82.884.348.199.763.299 1.246.299.505 0 .931-.107 1.279-.32.348-.22.611-.544.788-.97.185-.426.281-.955.288-1.587V14.182Zm20.303 6.541c-.071-.781-.388-1.389-.949-1.822-.554-.44-1.345-.66-2.375-.66-.682 0-1.25.088-1.705.266-.454.178-.795.423-1.023.735a1.775 1.775 0 0 0-.351 1.055c-.014.327.05.614.192.863.149.248.362.469.639.66.284.185.625.348 1.023.49.397.142.845.267 1.342.373l1.875.426c1.079.235 2.031.547 2.855.938.831.39 1.527.856 2.088 1.395.568.54.998 1.162 1.289 1.865.291.703.44 1.491.448 2.365-.008 1.378-.356 2.56-1.044 3.547-.689.988-1.68 1.744-2.973 2.27-1.285.525-2.837.788-4.655.788-1.826 0-3.416-.273-4.773-.82-1.357-.547-2.411-1.378-3.164-2.493-.753-1.115-1.14-2.525-1.161-4.23h5.049c.043.703.231 1.29.565 1.758.334.469.792.824 1.374 1.066.59.241 1.272.362 2.046.362.71 0 1.314-.096 1.811-.288.504-.192.891-.458 1.161-.799.27-.34.408-.731.416-1.172a1.618 1.618 0 0 0-.384-1.055c-.249-.298-.632-.553-1.151-.767-.511-.22-1.164-.422-1.96-.607l-2.28-.532c-1.889-.434-3.377-1.133-4.463-2.1-1.087-.972-1.627-2.286-1.62-3.94-.007-1.35.355-2.533 1.087-3.549.732-1.015 1.744-1.807 3.036-2.375 1.293-.568 2.767-.853 4.421-.853 1.691 0 3.157.288 4.4.863 1.25.569 2.22 1.368 2.909 2.397.689 1.03 1.04 2.223 1.054 3.58h-5.049Z" fill="#fff"/></svg>