<svg width="168" height="50" fill="none" xmlns="http://www.w3.org/2000/svg"><path d="M22.008 50a3.795 3.795 0 0 1-1.906-.514l-6.067-3.621c-.907-.512-.465-.692-.166-.796 1.21-.426 1.453-.523 2.743-1.262.136-.078.313-.05.452.033l4.662 2.788a.606.606 0 0 0 .562 0l18.176-10.576a.577.577 0 0 0 .278-.495v-21.14a.589.589 0 0 0-.282-.505L22.293 3.345a.557.557 0 0 0-.56 0L3.57 13.91a.58.58 0 0 0-.289.5v21.142c0 .202.11.394.283.49L8.54 38.94c2.702 1.362 4.353-.243 4.353-1.857V16.218a.52.52 0 0 1 .528-.527h2.302c.287 0 .524.229.524.527v20.877c0 3.632-1.965 5.719-5.382 5.719-1.052 0-1.88 0-4.19-1.147l-4.769-2.77a3.862 3.862 0 0 1-1.395-1.415A3.902 3.902 0 0 1 0 35.554V14.412a3.876 3.876 0 0 1 .509-1.927 3.837 3.837 0 0 1 1.397-1.413L20.1.492c1.151-.656 2.68-.656 3.822 0l18.172 10.585c.58.34 1.06.828 1.394 1.414.335.586.51 1.25.511 1.925V35.56a3.903 3.903 0 0 1-.513 1.925 3.864 3.864 0 0 1-1.393 1.414l-18.172 10.58a3.796 3.796 0 0 1-1.915.513" fill="#fff"/><path d="M27.622 35.431c-7.952 0-9.62-3.68-9.62-6.766 0-.293.236-.527.527-.527h2.349c.26 0 .478.19.518.448.355 2.411 1.41 3.628 6.22 3.628 3.83 0 5.459-.872 5.459-2.92 0-1.18-.464-2.055-6.415-2.642-4.977-.495-8.053-1.6-8.053-5.613 0-3.697 3.094-5.898 8.276-5.898 5.82 0 8.704 2.037 9.067 6.411a.538.538 0 0 1-.315.534.526.526 0 0 1-.213.044h-2.36a.519.519 0 0 1-.51-.413c-.569-2.536-1.943-3.347-5.679-3.347-4.18 0-4.667 1.467-4.667 2.567 0 1.334.573 1.724 6.214 2.477 5.587.747 8.24 1.802 8.24 5.76 0 3.99-3.304 6.278-9.063 6.278M73.22 14.182V36h-4.474l-8.683-12.592h-.138V36H54.65V14.182h4.539l8.586 12.57h.181v-12.57h5.263Zm10.954 22.127c-1.718 0-3.196-.352-4.431-1.055a7.277 7.277 0 0 1-2.845-2.961c-.66-1.272-.99-2.745-.99-4.422 0-1.683.33-3.156.99-4.42a7.191 7.191 0 0 1 2.845-2.962c1.236-.71 2.713-1.066 4.431-1.066 1.72 0 3.193.355 4.422 1.066a7.104 7.104 0 0 1 2.844 2.961c.668 1.265 1.002 2.738 1.002 4.421 0 1.677-.334 3.15-1.002 4.422a7.188 7.188 0 0 1-2.844 2.961c-1.229.703-2.703 1.055-4.422 1.055Zm.032-3.931c.626 0 1.155-.192 1.588-.575.433-.384.763-.917.99-1.599.235-.681.352-1.47.352-2.364 0-.91-.117-1.705-.351-2.387-.228-.682-.558-1.214-.991-1.598-.433-.383-.962-.575-1.587-.575-.647 0-1.194.192-1.641.575-.44.384-.778.916-1.012 1.598-.228.682-.341 1.477-.341 2.387 0 .894.114 1.683.34 2.364.235.682.573 1.215 1.013 1.599.447.383.994.575 1.64.575Zm16.881 3.856c-1.208 0-2.305-.312-3.292-.937-.987-.625-1.776-1.563-2.365-2.813-.59-1.25-.884-2.802-.884-4.655 0-1.925.305-3.509.916-4.752.61-1.243 1.41-2.162 2.397-2.759a6.126 6.126 0 0 1 3.207-.895c.859 0 1.594.15 2.205.448A4.547 4.547 0 0 1 104.784 21c.397.462.699.941.905 1.438h.107v-8.256h5.209V36h-5.156v-2.653h-.16c-.22.505-.533.977-.937 1.417-.405.44-.913.796-1.524 1.066-.604.27-1.317.404-2.141.404Zm1.811-4.059c.632 0 1.172-.177 1.619-.532.448-.363.792-.87 1.034-1.524.241-.653.362-1.42.362-2.3 0-.896-.121-1.666-.362-2.313-.235-.646-.579-1.143-1.034-1.491-.447-.348-.987-.522-1.619-.522-.646 0-1.193.178-1.641.533-.447.355-.788.855-1.022 1.502-.228.646-.341 1.41-.341 2.29 0 .88.117 1.648.351 2.301.235.654.572 1.162 1.012 1.524.448.355.995.532 1.641.532Zm19.051 4.134c-1.712 0-3.189-.337-4.432-1.012a7 7 0 0 1-2.855-2.908c-.661-1.265-.991-2.767-.991-4.507 0-1.69.334-3.168 1.002-4.432a7.224 7.224 0 0 1 2.823-2.961c1.214-.71 2.645-1.066 4.293-1.066 1.165 0 2.23.181 3.196.544a6.87 6.87 0 0 1 2.504 1.608c.703.71 1.25 1.588 1.64 2.632.391 1.037.586 2.226.586 3.569v1.3h-14.222V26.05h9.375a2.94 2.94 0 0 0-.394-1.481 2.684 2.684 0 0 0-1.055-1.012c-.44-.249-.948-.373-1.523-.373-.583 0-1.105.131-1.566.394a2.9 2.9 0 0 0-1.098 1.055c-.27.44-.412.94-.426 1.502v3.079c0 .667.132 1.253.394 1.758.263.497.636.884 1.119 1.16.483.278 1.058.416 1.726.416.461 0 .88-.064 1.257-.192.376-.127.699-.316.969-.564.27-.249.473-.554.608-.916l4.783.138a5.926 5.926 0 0 1-1.31 2.802c-.668.788-1.545 1.403-2.632 1.843-1.086.433-2.344.65-3.771.65Zm19.291-22.127h5.198v15.085c-.007 1.413-.344 2.65-1.012 3.707-.667 1.052-1.591 1.868-2.77 2.45-1.171.583-2.528.874-4.069.874-1.364 0-2.603-.238-3.718-.714a5.902 5.902 0 0 1-2.653-2.215c-.653-1.002-.976-2.284-.969-3.846h5.252c.021.56.128 1.04.319 1.438.199.39.473.685.821.884.348.199.763.299 1.246.299.504 0 .931-.107 1.279-.32.348-.22.61-.544.788-.97.185-.426.28-.955.288-1.587V14.182Zm20.302 6.541c-.071-.781-.387-1.389-.948-1.822-.554-.44-1.346-.66-2.376-.66-.681 0-1.25.088-1.704.266-.455.178-.796.423-1.023.735a1.775 1.775 0 0 0-.351 1.055 1.56 1.56 0 0 0 .191.863c.149.248.363.469.64.66.284.185.625.348 1.022.49.398.142.845.267 1.343.373l1.875.426c1.079.235 2.031.547 2.855.938.831.39 1.527.856 2.088 1.395.568.54.998 1.162 1.289 1.865.291.703.44 1.491.447 2.365-.007 1.378-.355 2.56-1.044 3.547-.689.988-1.679 1.744-2.972 2.27-1.286.525-2.837.788-4.656.788-1.825 0-3.416-.273-4.772-.82-1.357-.547-2.412-1.378-3.164-2.493-.753-1.115-1.14-2.525-1.162-4.23h5.05c.043.703.231 1.29.565 1.758.334.469.792.824 1.374 1.066.59.241 1.271.362 2.045.362.711 0 1.314-.096 1.812-.288.504-.192.891-.458 1.161-.799.27-.34.408-.731.415-1.172a1.617 1.617 0 0 0-.383-1.055c-.249-.298-.632-.553-1.151-.767-.511-.22-1.165-.422-1.96-.607l-2.28-.532c-1.889-.434-3.377-1.133-4.464-2.1-1.086-.972-1.626-2.286-1.619-3.94-.007-1.35.355-2.533 1.087-3.549.731-1.015 1.743-1.807 3.036-2.375 1.292-.568 2.766-.853 4.421-.853 1.69 0 3.157.288 4.4.863 1.25.569 2.219 1.368 2.908 2.397.689 1.03 1.041 2.223 1.055 3.58h-5.05Z" fill="#fff"/></svg>