<svg width="236" height="50" fill="none" xmlns="http://www.w3.org/2000/svg"><path d="M34.005 0c-2.244 0-4.186.598-5.531 1.19C27.154.75 24.966.003 22.34.542c-1.53.264-2.935.887-4.225 1.843-2.123-1.011-4.34-1.63-6.666-1.732-1.43-.11-7.263.544-9.357 3.583C1.325 5.435.555 6.954.225 8.802c-.33 1.63-.33 3.482.22 7.286.33 2.607.774 4.348 1.762 7.932.112.326.662 2.067 2.312 6.852.326.866.989 2.496 2.308 4.017.881 1.087 1.762 1.74 2.863 1.74 1.43 0 2.419-.976 3.3-2.063.064-.073.132-.152.198-.225a1.42 1.42 0 0 0-.198.442c-.22 1.087 1.1 1.956 2.2 2.39.88.433 1.87.544 2.639.544.99 0 1.763-.217 2.2-.323.379-.128 1.195-.475 2.069-1.05.037 2.778.064 6.055.132 6.807.331 2.828 1.1 4.782 2.532 5.869 1.1.87 3.08.98 3.192.98 1.978 0 5.058-1.304 6.379-3.367.662-.98.88-1.852 1.1-3.048.22-.65.439-4.455.55-5.214.15-1.203.266-2.387.383-3.537.726.187 1.62.386 2.59.386 1.76 0 4.072-1.197 4.51-1.418.88-.65 2.638-2.17 1.87-3.474-.44-.764-1.1-.764-2.75-.543 0 0-2.641.323-2.863.213-.16-.06-.405-.213-.68-.413.572-.874 1.078-1.74 1.672-2.518a45.559 45.559 0 0 0 2.643-5.978 48.332 48.332 0 0 0 1.866-6.415c.773-3.261.992-4.78.55-6.522-.877-3.043-4.07-5.652-5.39-6.41C39.504 1.302 37.305 0 34.004 0Zm0 2.174c2.75 0 4.62 1.087 5.609 1.52 1.212.654 3.963 2.828 4.18 4.89.113 1.199.22 2.396-.55 5.546-.437 1.52-.88 3.479-1.872 6.196-.55 1.52-1.208 3.37-2.527 5.654-.034.056-.074.116-.108.174.129-.457.22-.827.22-.827.219-1.087.219-1.957.107-3.26-.113-.655-.22-2.285-.22-2.939 0-.323.327-3.694.44-4.891.11-1.953-1.1-4.348-1.428-4.782-1.65-2.5-2.531-3.91-4.294-5.323a17.274 17.274 0 0 0-2.213-1.606c.808-.196 1.702-.352 2.656-.352Zm-9.722.446c1.436.033 2.652.423 3.56.752 2.31.76 3.738 1.952 4.4 2.495 1.43 1.198 2.2 2.396 3.851 4.896.121.24.434.744.682 1.448-2.25-.203-3.746.578-4.645 1.376-1.32 1.087-1.211 2.717-1.1 3.91 0 .87.223 1.962 1.873 5.656.658 1.63 1.316 3.367 1.978 4.564.338.657.746 1.277 1.217 1.848-.263.13-.529.301-.778.544-.658.758-.77 1.524-.99 2.937-.218 1.087-.437 3.367-.55 5.214 0 .76-.326 4.459-.438 5.002-.33 1.087-.443 1.63-.88 2.284-.771 1.193-3.19 2.174-4.622 2.064-.438 0-1.1 0-1.65-.434-1.21-.87-1.65-2.827-1.76-4.348-.113-1.087 0-8.916-.22-10.656-.113-.434-.22-1.52-1.1-2.28-.37-.306-1.135-.464-1.858-.57.009-.364.03-.73.099-1.061.108-.654.327-.98.55-1.524.108-.323.327-.757.55-1.3.99-3.044.766-7.07.216-9.57-.108-.217-.55-1.953-2.09-2.93-1.65-.98-3.411-.437-4.4-.11a6.5 6.5 0 0 0-1.216.488c.068-.454.129-.913.228-1.358.438-2.174.88-4.022 2.311-5.868 1.54-1.852 3.296-3.046 5.28-3.372a8.4 8.4 0 0 1 1.502-.097Zm-13.585.19c.258-.003.477 0 .64.018 1.72.09 3.365.488 5 1.168-.203.22-.405.441-.598.679-1.87 2.174-2.313 4.453-2.75 6.738-.551 2.717-.663 5.541-.224 8.37l-.216 2.063c-.111 1.087-.334 3.154.877 5.328.39.673.864 1.297 1.41 1.855a55.914 55.914 0 0 1-3.5 4.123c-.66.761-1.21 1.304-1.65 1.304-.11 0-.55-.217-1.21-.978-1.212-1.302-1.65-2.717-1.87-3.26-1.32-3.914-2.089-6.416-2.2-6.742-.881-3.478-1.321-5.214-1.763-7.715-.55-3.478-.55-5.217-.22-6.628.332-1.524.882-2.722 1.432-3.587 1.35-2.094 5.055-2.688 6.842-2.735Zm25.245 11.456c.352 0 .735.044 1.14.127-.013 1.016-.439 4.2-.439 4.629 0 .87.22 2.606.22 3.26.111 1.198.111 1.848 0 2.718 0 0-.164.777-.33 1.33-.514-1.143-1.08-2.506-1.764-4.047-1.65-3.694-1.758-4.455-1.758-4.998 0-.764 0-1.74.658-2.174.619-.544 1.371-.837 2.273-.845Zm-17.079.319c.22.025.42.089.614.195.882.437 1.1 1.524 1.1 1.524.55 2.392.77 5.979-.11 8.37-.108.433-.327.759-.44 1.087-.218.543-.438 1.087-.66 2.063-.057.402-.083.802-.095 1.201-.762-.156-1.48-.424-1.995-.764-.88-.433-1.538-1.198-1.977-2.067-.774-1.631-.662-3.152-.55-4.018l.215-2.504a26.295 26.295 0 0 1-.211-3.669 5.295 5.295 0 0 1 2.085-1.113c.661-.16 1.384-.386 2.024-.305Zm16.225.73c-.257.01-.511.05-.758.12-.437.108-.55.108-.66.326-.109.217.223.543.334.76.107 0 .439.327.877.22.33-.11.55-.326.662-.437.111-.11.55-.654.219-.87-.112-.11-.387-.136-.674-.119Zm-16.474.79a.925.925 0 0 0-.348.093c-.108 0-.327.106-.44.323-.11.217 0 .433.113.543.22.327.55.654 1.1.654.111 0 .55 0 .877-.327 0 0 .335-.326.335-.65-.111-.22-.33-.326-.662-.437-.25-.08-.619-.225-.975-.2ZM16.59 30.327c.675.357 1.488.646 2.377.846a3.23 3.23 0 0 1-.916 1.109c-.773.543-1.761.87-2.75 1.087-.224 0-.33.108-.55.108-.533.15-1.049.316-1.401.676 1.078-1.184 2.162-2.492 3.24-3.826Zm21.214.87c.482.357.955.62 1.367.762.662.216 1.212.216 3.193 0-.33.322-1.32.865-2.75 1.087-.92.088-2.063-.128-2.992-.392.086-.615.185-.967.349-1.133.06-.055.425-.165.833-.323Zm-16.568.327c.228.04.409.069.443.103.22.22.33.764.33.98.014.188.023.658.03.986-.906 1.048-2.363 1.63-2.673 1.732-.438.218-1.757.433-3.076 0 1.1-.326 2.2-.65 3.077-1.304.77-.544 1.43-1.41 1.87-2.497ZM60.651 36V14.182h9.013c1.634 0 3.043.32 4.23.959 1.193.632 2.112 1.516 2.759 2.652.646 1.13.97 2.444.97 3.942 0 1.506-.331 2.823-.992 3.953-.653 1.122-1.587 1.992-2.802 2.61-1.214.618-2.656.926-4.325.926h-5.56V25.07h4.58c.796 0 1.46-.139 1.992-.416.54-.277.948-.664 1.225-1.161.278-.504.416-1.09.416-1.758 0-.675-.138-1.257-.415-1.747a2.789 2.789 0 0 0-1.226-1.15c-.54-.27-1.204-.405-1.992-.405h-2.6V36h-5.273Zm26.887.309c-1.719 0-3.196-.352-4.432-1.055a7.278 7.278 0 0 1-2.844-2.961c-.661-1.272-.991-2.745-.991-4.422 0-1.683.33-3.156.99-4.42a7.192 7.192 0 0 1 2.845-2.962c1.236-.71 2.713-1.066 4.432-1.066 1.719 0 3.192.355 4.421 1.066a7.104 7.104 0 0 1 2.844 2.961c.668 1.265 1.002 2.738 1.002 4.421 0 1.677-.334 3.15-1.002 4.422a7.188 7.188 0 0 1-2.844 2.961c-1.229.703-2.702 1.055-4.421 1.055Zm.032-3.931c.625 0 1.154-.192 1.587-.575.433-.384.764-.917.99-1.599.235-.681.352-1.47.352-2.364 0-.91-.117-1.705-.351-2.387-.227-.682-.558-1.214-.99-1.598-.434-.383-.963-.575-1.588-.575-.646 0-1.193.192-1.64.575-.441.384-.779.916-1.013 1.598-.227.682-.34 1.477-.34 2.387 0 .894.113 1.683.34 2.364.234.682.572 1.215 1.012 1.599.448.383.995.575 1.64.575Zm25.19-7.745-4.784.128a1.779 1.779 0 0 0-.404-.906 2.184 2.184 0 0 0-.863-.628c-.348-.157-.753-.235-1.215-.235-.604 0-1.118.12-1.545.362-.419.242-.625.569-.618.98-.007.32.121.597.384.832.27.234.749.422 1.438.564l3.154.597c1.633.312 2.848.83 3.643 1.555.803.724 1.207 1.683 1.215 2.877-.008 1.122-.341 2.098-1.002 2.93-.653.83-1.548 1.477-2.684 1.938-1.137.455-2.437.682-3.9.682-2.336 0-4.179-.48-5.529-1.438-1.342-.966-2.11-2.259-2.3-3.878l5.145-.128c.113.597.408 1.051.884 1.364.476.312 1.083.468 1.822.468.667 0 1.211-.124 1.63-.372.419-.249.632-.58.639-.991-.007-.37-.171-.664-.49-.884-.32-.228-.821-.405-1.502-.533l-2.855-.543c-1.641-.299-2.863-.85-3.665-1.652-.803-.81-1.2-1.84-1.193-3.09-.008-1.093.284-2.027.873-2.801.59-.781 1.428-1.378 2.514-1.79 1.087-.412 2.369-.618 3.846-.618 2.216 0 3.963.466 5.242 1.396 1.278.923 1.985 2.195 2.12 3.814Zm12.206-4.997v3.836h-10.323v-3.836h10.323Zm-8.161-3.92h5.21v15.138c0 .32.05.58.149.778.107.192.259.33.458.416.199.078.437.117.714.117.199 0 .408-.018.628-.053.228-.043.398-.079.512-.107l.788 3.76c-.248.072-.6.16-1.054.267a8.77 8.77 0 0 1-1.609.202c-1.222.057-2.269-.085-3.143-.426-.866-.348-1.53-.888-1.992-1.62-.455-.73-.675-1.65-.661-2.758V15.716Zm18.271 26.761c-1.555 0-2.887-.216-3.995-.65-1.108-.433-1.978-1.026-2.61-1.779a4.927 4.927 0 0 1-1.14-2.556l4.932-.277c.093.333.263.624.512.873.256.249.586.44.991.575.412.135.895.203 1.448.203.874 0 1.595-.213 2.163-.64.575-.419.863-1.154.863-2.205v-2.876h-.181a3.877 3.877 0 0 1-.938 1.353c-.419.398-.941.71-1.566.937-.617.228-1.328.341-2.13.341-1.193 0-2.287-.277-3.282-.83-.987-.562-1.779-1.428-2.375-2.6-.59-1.18-.884-2.695-.884-4.55 0-1.91.305-3.483.916-4.719.611-1.243 1.41-2.162 2.397-2.759a6.123 6.123 0 0 1 3.206-.895c.86 0 1.595.15 2.206.448A4.519 4.519 0 0 1 137.132 21c.398.462.7.941.906 1.438h.149v-2.802h5.188v16.428c0 1.385-.348 2.553-1.044 3.505-.696.952-1.669 1.672-2.919 2.162-1.25.498-2.695.746-4.336.746Zm.16-10.493c.632 0 1.172-.167 1.619-.501.448-.334.792-.813 1.033-1.438.242-.625.363-1.375.363-2.248 0-.888-.121-1.651-.363-2.29-.234-.647-.578-1.144-1.033-1.492-.447-.348-.987-.522-1.619-.522-.647 0-1.193.178-1.641.533-.447.355-.788.855-1.023 1.502-.227.639-.34 1.395-.34 2.269 0 .873.117 1.623.351 2.248.234.625.572 1.104 1.012 1.438.448.334.994.5 1.641.5ZM146.696 36V19.636h5.061v2.983h.17c.298-1.08.785-1.882 1.46-2.407.674-.533 1.459-.8 2.354-.8.241 0 .49.018.746.054.255.028.493.075.713.138v4.528a4.97 4.97 0 0 0-.98-.202 8.668 8.668 0 0 0-1.065-.075 3.38 3.38 0 0 0-1.673.416c-.49.27-.877.65-1.161 1.14-.277.482-.415 1.05-.415 1.704V36h-5.21Zm19.427.309c-1.712 0-3.189-.337-4.432-1.012a6.995 6.995 0 0 1-2.855-2.908c-.661-1.265-.991-2.767-.991-4.507 0-1.69.334-3.168 1.001-4.432.668-1.271 1.609-2.258 2.824-2.961 1.214-.71 2.645-1.066 4.293-1.066 1.165 0 2.23.181 3.196.544.966.362 1.8.898 2.503 1.608.704.71 1.25 1.588 1.641 2.632.391 1.037.586 2.226.586 3.569v1.3h-14.222V26.05h9.375a2.94 2.94 0 0 0-.394-1.481 2.684 2.684 0 0 0-1.055-1.012c-.44-.249-.948-.373-1.524-.373a3.11 3.11 0 0 0-1.566.394 2.904 2.904 0 0 0-1.097 1.055c-.27.44-.412.94-.426 1.502v3.079c0 .667.131 1.253.394 1.758.263.497.636.884 1.119 1.16.483.278 1.058.416 1.726.416.461 0 .88-.064 1.257-.192.376-.127.699-.316.969-.564a2.33 2.33 0 0 0 .607-.916l4.784.138a5.918 5.918 0 0 1-1.311 2.802c-.667.788-1.544 1.403-2.631 1.843-1.087.433-2.344.65-3.771.65Zm22.22-15.586c-.071-.781-.387-1.389-.948-1.822-.554-.44-1.346-.66-2.376-.66-.682 0-1.25.088-1.704.266-.455.178-.796.423-1.023.735a1.776 1.776 0 0 0-.352 1.055c-.014.327.05.614.192.863.149.248.362.469.639.66.284.185.625.348 1.023.49.398.142.845.267 1.342.373l1.875.426c1.08.235 2.032.547 2.855.938.831.39 1.527.856 2.089 1.395.568.54.997 1.162 1.289 1.865.291.703.44 1.491.447 2.365-.007 1.378-.355 2.56-1.044 3.547-.689.988-1.68 1.744-2.972 2.27-1.286.525-2.838.788-4.656.788-1.825 0-3.416-.273-4.773-.82-1.356-.547-2.411-1.378-3.164-2.493-.752-1.115-1.14-2.525-1.161-4.23h5.05c.042.703.231 1.29.565 1.758.333.469.791.824 1.374 1.066.589.241 1.271.362 2.045.362.71 0 1.314-.096 1.811-.288.505-.192.892-.458 1.162-.799.269-.34.408-.731.415-1.172a1.617 1.617 0 0 0-.383-1.055c-.249-.298-.633-.553-1.151-.767-.511-.22-1.165-.422-1.96-.607l-2.28-.532c-1.889-.434-3.377-1.133-4.464-2.1-1.087-.972-1.626-2.286-1.619-3.94-.007-1.35.355-2.533 1.086-3.549.732-1.015 1.744-1.807 3.037-2.375 1.292-.568 2.766-.853 4.421-.853 1.69 0 3.157.288 4.4.863 1.25.569 2.219 1.368 2.908 2.397.689 1.03 1.041 2.223 1.055 3.58h-5.05Zm16.353 7.436h4.261l1.811 2.312 2.376 2.727 3.654 4.507h-4.772l-2.557-3.058-1.513-2.173-3.26-4.315Zm12.251-3.068c0 2.4-.461 4.435-1.385 6.104-.923 1.67-2.173 2.937-3.75 3.804-1.569.866-3.33 1.3-5.284 1.3-1.96 0-3.725-.438-5.294-1.311-1.57-.874-2.816-2.141-3.74-3.803-.916-1.67-1.374-3.7-1.374-6.094 0-2.4.458-4.436 1.374-6.105.924-1.669 2.17-2.936 3.74-3.803 1.569-.866 3.334-1.3 5.294-1.3 1.954 0 3.715.434 5.284 1.3 1.577.867 2.827 2.134 3.75 3.803.924 1.67 1.385 3.704 1.385 6.105Zm-5.39 0c0-1.42-.203-2.62-.607-3.6-.398-.981-.973-1.723-1.726-2.227-.746-.505-1.644-.757-2.696-.757-1.044 0-1.942.252-2.695.756-.753.505-1.332 1.247-1.736 2.227-.398.98-.597 2.18-.597 3.6 0 1.421.199 2.622.597 3.602.404.98.983 1.722 1.736 2.226.753.505 1.651.757 2.695.757 1.052 0 1.95-.252 2.696-.757.753-.504 1.328-1.246 1.726-2.226.404-.98.607-2.18.607-3.601ZM220.056 36V14.182h5.273v17.535h9.077V36h-14.35Z" fill="#fff"/></svg>