<svg width="143" height="50" fill="none" xmlns="http://www.w3.org/2000/svg"><path d="M25 37.361c-14.252 0-25-5.18-25-12.361 0-7.18 10.748-12.5 25-12.5S50 17.82 50 25 39.252 37.361 25 37.361Zm0-20.789c-12.161 0-21.406 4.536-21.406 8.515 0 3.98 9.245 8.34 21.406 8.34s21.406-4.535 21.406-8.514c0-3.98-9.245-8.34-21.406-8.34Z" fill="#fff"/><path d="M15.502 50c-1.163 0-2.226-.3-3.16-.892-1.524-.968-2.618-2.677-3.165-4.947-1.432-5.947.88-15.947 5.892-25.478C20.95 7.51 28.759.004 34.499.004c1.162 0 2.225.3 3.158.892 1.523.965 2.618 2.674 3.164 4.942 1.434 5.947-.878 15.948-5.893 25.479C29.05 42.492 21.244 50 15.503 50ZM34.5 4.17c-3.61 0-10.512 5.825-16.193 16.616-5.154 9.8-6.665 17.93-5.505 22.297.314 1.18.756 1.998 1.402 2.406 2.95 1.872 11.01-3.958 17.488-16.274 5.156-9.801 6.825-17.757 5.508-22.298-.339-1.168-.755-1.993-1.399-2.4-.366-.234-.792-.346-1.301-.346Z" fill="#fff"/><path d="M34.499 49.996c-5.747-.002-13.554-7.507-19.43-18.68-5.013-9.53-7.324-19.531-5.892-25.477.547-2.27 1.64-3.98 3.164-4.946C13.276.3 14.34 0 15.5 0c5.744 0 13.55 7.508 19.428 18.683 5.013 9.53 7.325 19.53 5.892 25.48-.547 2.268-1.641 3.976-3.163 4.941-.933.592-1.997.892-3.158.892ZM15.5 4.166c-.509 0-.934.115-1.3.345-.644.408-1.092 1.224-1.4 2.406-1.16 4.455.351 12.498 5.505 22.298 5.676 10.79 12.579 16.614 16.193 16.614.51 0 .934-.114 1.3-.346.643-.405 1.105-1.216 1.398-2.4 1.084-4.37-.351-12.5-5.506-22.298C26.014 9.992 19.112 4.167 15.5 4.167Z" fill="#fff"/><path d="M29.375 25c0 2.688-1.956 4.861-4.375 4.861S20.625 27.687 20.625 25c0-2.688 1.956-4.861 4.375-4.861s4.375 2.174 4.375 4.861Z" fill="#000"/><path d="M25 30.556c-2.758 0-5-2.492-5-5.556s2.242-5.555 5-5.555 5 2.491 5 5.555c0 3.064-2.242 5.556-5 5.556Zm0-9.723c-2.067 0-3.75 1.87-3.75 4.167 0 2.297 1.683 4.167 3.75 4.167s3.75-1.87 3.75-4.167c0-2.297-1.683-4.167-3.75-4.167Z" fill="#fff"/><path d="M25 36.206C11.682 36.206 1.25 31.282 1.25 25c0-6.283 10.432-11.206 23.75-11.206S48.75 18.717 48.75 25c0 6.283-10.432 11.206-23.75 11.206Zm0-21.023C12.804 15.183 2.5 19.68 2.5 25c0 5.32 10.304 9.817 22.5 9.817S47.5 30.322 47.5 25 37.196 15.183 25 15.183Z" fill="#000"/><path d="M34.499 48.607c-5.234-.002-12.78-7.399-18.351-17.99-4.853-9.227-7.114-18.811-5.763-24.418.465-1.93 1.331-3.31 2.578-4.1.742-.471 1.596-.71 2.537-.71 5.231 0 12.776 7.4 18.349 17.994 4.854 9.225 7.115 18.81 5.762 24.42-.463 1.929-1.33 3.307-2.573 4.094-.743.471-1.597.71-2.54.71ZM15.5 2.777c-.721 0-1.367.179-1.919.527-.945.6-1.613 1.693-1.99 3.253-1.248 5.186 1.017 14.574 5.635 23.358C22.5 39.94 29.766 47.217 34.5 47.218c.722 0 1.369-.178 1.92-.528.942-.597 1.611-1.69 1.986-3.247 1.25-5.188-1.015-14.575-5.635-23.358C27.495 10.057 20.234 2.778 15.5 2.778Z" fill="#000"/><path d="M15.502 48.611c-.943 0-1.797-.239-2.54-.71-1.246-.79-2.112-2.17-2.578-4.1-1.352-5.607.911-15.191 5.762-24.418C21.724 8.792 29.27 1.393 34.5 1.393c.942 0 1.797.239 2.54.71 1.243.789 2.11 2.166 2.576 4.094 1.351 5.607-.911 15.192-5.765 24.42C28.276 41.21 20.733 48.61 15.502 48.61ZM34.5 2.782c-4.73 0-11.994 7.276-17.272 17.303-4.618 8.784-6.883 18.17-5.635 23.358.377 1.56 1.045 2.653 1.99 3.253.552.348 1.197.526 1.92.526 4.73 0 11.993-7.278 17.267-17.307 4.621-8.786 6.887-18.173 5.636-23.358C38.03 5 37.361 3.907 36.417 3.31c-.55-.35-1.196-.528-1.918-.528Z" fill="#050505"/><path d="M59.651 36V14.182h9.013c1.634 0 3.043.295 4.23.884 1.193.582 2.112 1.42 2.759 2.514.646 1.087.97 2.376.97 3.867 0 1.513-.331 2.799-.992 3.857-.66 1.051-1.598 1.854-2.812 2.408-1.215.547-2.653.82-4.315.82h-5.7v-4.155h4.72c.796 0 1.46-.103 1.992-.309.54-.213.948-.533 1.225-.959.278-.433.416-.987.416-1.662 0-.674-.138-1.232-.415-1.672-.278-.448-.686-.781-1.226-1.002-.54-.227-1.204-.34-1.992-.34h-2.6V36h-5.273Zm12.284-9.972L77.368 36h-5.753l-5.327-9.972h5.647Zm14.906 10.28c-1.711 0-3.188-.336-4.431-1.011a7 7 0 0 1-2.855-2.908c-.661-1.265-.991-2.767-.991-4.507 0-1.69.334-3.168 1.001-4.432a7.23 7.23 0 0 1 2.823-2.961c1.215-.71 2.646-1.066 4.294-1.066 1.164 0 2.23.181 3.196.544a6.87 6.87 0 0 1 2.503 1.608c.703.71 1.25 1.588 1.64 2.632.391 1.037.587 2.226.587 3.569v1.3H80.385V26.05h9.375a2.934 2.934 0 0 0-.394-1.481 2.678 2.678 0 0 0-1.054-1.012c-.44-.249-.948-.373-1.524-.373a3.11 3.11 0 0 0-1.566.394 2.9 2.9 0 0 0-1.097 1.055c-.27.44-.412.94-.426 1.502v3.079c0 .667.131 1.253.394 1.758.263.497.635.884 1.118 1.16.483.278 1.059.416 1.726.416.462 0 .881-.064 1.257-.192.377-.127.7-.316.97-.564a2.33 2.33 0 0 0 .607-.916l4.784.138a5.918 5.918 0 0 1-1.31 2.802c-.669.788-1.546 1.403-2.632 1.843-1.087.433-2.344.65-3.772.65Zm15.04-.031c-1.044 0-1.97-.174-2.78-.522a4.331 4.331 0 0 1-1.907-1.598c-.462-.717-.693-1.616-.693-2.695 0-.91.16-1.677.48-2.302.32-.625.76-1.132 1.32-1.523a6.213 6.213 0 0 1 1.94-.884 12.59 12.59 0 0 1 2.344-.416c.93-.085 1.679-.174 2.247-.266.569-.1.981-.238 1.236-.416a.895.895 0 0 0 .394-.777v-.053c0-.547-.188-.97-.564-1.268-.377-.298-.885-.448-1.524-.448-.689 0-1.243.15-1.662.448-.419.298-.685.71-.799 1.236l-4.804-.17a5.681 5.681 0 0 1 1.097-2.664c.597-.788 1.413-1.406 2.45-1.854 1.044-.454 2.298-.682 3.761-.682 1.044 0 2.006.125 2.887.373.881.242 1.648.597 2.301 1.066a4.81 4.81 0 0 1 1.513 1.704c.362.675.543 1.445.543 2.312V36h-4.9v-2.28h-.128a4.635 4.635 0 0 1-1.119 1.406 4.45 4.45 0 0 1-1.587.863c-.604.192-1.286.288-2.046.288Zm1.609-3.41c.561 0 1.065-.113 1.513-.34.454-.227.817-.54 1.086-.938.27-.404.405-.873.405-1.406v-1.555c-.149.078-.33.149-.543.213a9.26 9.26 0 0 1-.682.181c-.248.057-.504.107-.767.15-.263.042-.515.08-.756.116-.49.078-.909.2-1.257.363a1.988 1.988 0 0 0-.789.639 1.57 1.57 0 0 0-.266.916c0 .54.192.952.575 1.236.391.284.884.426 1.481.426Zm18.995 3.442c-1.726 0-3.207-.355-4.442-1.065a7.202 7.202 0 0 1-2.834-2.962c-.661-1.271-.991-2.741-.991-4.41 0-1.677.33-3.147.991-4.411a7.26 7.26 0 0 1 2.844-2.972c1.236-.71 2.71-1.066 4.421-1.066 1.513 0 2.831.274 3.953.82 1.129.548 2.01 1.322 2.642 2.323.639.994.976 2.163 1.012 3.505h-4.869c-.099-.838-.383-1.495-.852-1.97-.462-.477-1.065-.715-1.811-.715a2.57 2.57 0 0 0-1.587.512c-.455.334-.81.83-1.066 1.491-.248.654-.373 1.463-.373 2.43 0 .965.125 1.782.373 2.45.256.66.611 1.16 1.066 1.502.454.333.983.5 1.587.5.483 0 .909-.103 1.278-.309.377-.206.686-.508.927-.905.242-.405.394-.895.458-1.47h4.869c-.05 1.35-.387 2.528-1.012 3.537-.618 1.008-1.488 1.793-2.61 2.354-1.115.554-2.44.83-3.974.83Zm19.498-16.673v3.836H131.66v-3.836h10.323Zm-8.16-3.92h5.209v15.138c0 .32.05.58.15.778.106.192.259.33.458.416.199.078.437.117.714.117.198 0 .408-.018.628-.053.227-.043.398-.079.511-.107l.789 3.76c-.249.072-.6.16-1.055.267a8.759 8.759 0 0 1-1.609.202c-1.221.057-2.269-.085-3.142-.426-.867-.348-1.531-.888-1.993-1.62-.454-.73-.674-1.65-.66-2.758V15.716Z" fill="#fff"/></svg>