<svg width="141" height="50" fill="none" xmlns="http://www.w3.org/2000/svg"><path d="M46.008 31.885c0-.653-1.727-1.183-3.86-1.183-1.857 0-3.402.401-3.774.934l-11.023-5.213a4.638 4.638 0 0 0-4.014.014l-11.735 5.652a22.006 22.006 0 0 0-3.106-.206c-3.05.001-5.492.526-5.492 1.18 0 0-.012 3.301 0 3.7-.009.809.092 1.187.685 1.467l17.337 8.199a4.978 4.978 0 0 0 4.606-.016l19.801-9.537c.496-.239.598-.657.563-1.336 0-1.255.012-3.655.012-3.655Z" fill="#fff"/><path d="M25.359 27.974c.392 0 .774.087 1.136.258l8.159 3.859 2.865 1.355 1.529.723.807-1.158c.326-.125 1.126-.307 2.293-.307.805 0 1.436.087 1.857.181-.003.741-.007 1.741-.007 2.464l-6.256 3.013-12.976 6.25-.027.013-.026.014a3.007 3.007 0 0 1-1.396.348c-.475 0-.94-.114-1.382-.339l-.026-.013-.026-.012-8.893-4.206-7.987-3.777c-.006-.307-.006-1.33-.003-2.45.697-.15 1.885-.306 3.495-.306 1.013 0 1.988.064 2.818.185l.605.088.55-.266 9.553-4.601 2.182-1.051a2.657 2.657 0 0 1 1.156-.265Zm0-2c-.69 0-1.38.155-2.023.464L11.6 32.09a22.007 22.007 0 0 0-3.106-.206c-3.05.001-5.492.526-5.492 1.18 0 0-.012 3.301 0 3.7-.01.809.092 1.187.685 1.467l17.337 8.199a5.035 5.035 0 0 0 2.289.557c.79 0 1.58-.191 2.317-.573l19.8-9.537c.497-.239.599-.657.564-1.336 0-1.254.012-3.654.012-3.654 0-.653-1.727-1.183-3.861-1.183-1.856 0-3.401.401-3.773.934L27.35 26.425a4.62 4.62 0 0 0-1.991-.451Z" fill="#000"/><path d="M21.038 41.976 3.725 34.235c-.963-.431-.968-1.796-.008-2.233l19.633-8.941a4.908 4.908 0 0 1 4.035-.014l18.052 8.072c.79.353.794 1.474.006 1.832-6.594 3.003-13.187 6.006-19.782 9.008a5.617 5.617 0 0 1-4.623.017Z" fill="#fff"/><path d="M25.383 24.621c.411 0 .81.085 1.185.253l8.95 4.001 7.09 3.17-17.775 8.095a3.595 3.595 0 0 1-1.5.325c-.514 0-1.01-.106-1.48-.315l-7.885-3.525-7.86-3.514 8.025-3.654 10.045-4.574a2.87 2.87 0 0 1 1.205-.262Zm0-2a4.9 4.9 0 0 0-2.032.441L3.718 32.003c-.96.437-.955 1.802.008 2.233l17.313 7.741a5.63 5.63 0 0 0 4.624-.015c6.595-3.002 13.188-6.005 19.782-9.008.788-.359.784-1.479-.006-1.832L27.387 23.05a4.872 4.872 0 0 0-2.004-.429Z" fill="#000"/><path d="M45.996 23.023c0-.653-1.692-1.252-3.825-1.252-1.855 0-3.4.401-3.771.934l-11.017-5.213a4.633 4.633 0 0 0-4.012.014l-11.728 5.652a21.992 21.992 0 0 0-3.105-.206c-3.048.001-5.527.598-5.527 1.251 0 0 0 3.234-.01 3.551.01.712.14 1.266.733 1.546l17.327 8.199a5.316 5.316 0 0 0 4.604-.016l19.79-9.537c.496-.239.559-.714.54-1.278-.032-.983.001-3.645.001-3.645Z" fill="#fff"/><path d="M25.393 19.043c.392 0 .773.087 1.134.257l8.251 3.905 2.767 1.309 1.529.723.807-1.159c.326-.125 1.125-.307 2.29-.307.781 0 1.404.098 1.816.201-.006.756-.01 1.783.003 2.46l-6.281 3.027-12.911 6.222a3.32 3.32 0 0 1-2.88.011l-8.614-4.076-8.3-3.927c.006-.402.007-1.513.008-2.391.698-.167 1.904-.344 3.527-.344 1.013 0 1.986.064 2.815.185l.606.089.552-.266 4.726-2.277 7.002-3.374a2.617 2.617 0 0 1 1.153-.268Zm0-2a4.66 4.66 0 0 0-2.022.464l-11.728 5.652a21.992 21.992 0 0 0-3.105-.206c-3.048.001-5.527.598-5.527 1.251 0 0 0 3.234-.01 3.551.01.712.14 1.266.733 1.546L21.061 37.5a5.335 5.335 0 0 0 2.284.516c.791 0 1.582-.178 2.319-.533l19.79-9.537c.496-.239.559-.714.54-1.278-.033-.983 0-3.645 0-3.645 0-.653-1.692-1.252-3.825-1.252-1.855 0-3.4.401-3.771.934l-11.017-5.213a4.641 4.641 0 0 0-1.988-.449Z" fill="#000"/><path d="M21.069 33.05C15.28 30.46 9.492 27.867 3.703 25.275c-.936-.42-.941-1.746-.007-2.172l19.683-8.978a4.86 4.86 0 0 1 4.001-.014l18.105 8.108c.763.342.767 1.424.006 1.77-6.61 3.016-13.22 6.032-19.831 9.046a5.57 5.57 0 0 1-4.591.017Z" fill="#fff"/><path d="M25.393 15.687c.405 0 .798.084 1.168.25l9.158 4.101 6.87 3.077-17.761 8.101a3.54 3.54 0 0 1-1.482.322c-.507 0-.998-.105-1.46-.312l-8.39-3.757-7.344-3.289 7.806-3.56 10.25-4.675a2.816 2.816 0 0 1 1.185-.258Zm0-2c-.688 0-1.375.146-2.015.438L3.695 23.103c-.933.426-.928 1.753.008 2.172l17.366 7.777a5.58 5.58 0 0 0 4.589-.015l19.83-9.045c.762-.347.758-1.429-.005-1.771l-18.105-8.108a4.82 4.82 0 0 0-1.985-.426Z" fill="#000"/><path d="M46.008 14.07c0-.653-1.719-1.297-3.852-1.297-1.855 0-3.4.401-3.771.934L27.368 8.494a4.633 4.633 0 0 0-4.012.014L11.628 14.16a21.991 21.991 0 0 0-3.105-.206c-3.048.001-5.514.53-5.514 1.184 0 0-.027 3.627-.015 3.66-.026.606.132 1.223.725 1.503L21.046 28.5a5.316 5.316 0 0 0 4.604-.016l19.79-9.537c.496-.239.576-.728.558-1.264-.008-.677.01-3.613.01-3.613Z" fill="#fff"/><path d="M25.378 10.045c.392 0 .773.087 1.134.257l8.207 3.884 2.81 1.33 1.529.723.807-1.159c.326-.125 1.125-.307 2.29-.307.797 0 1.434.109 1.847.223-.004.766-.008 1.816-.005 2.426l-6.85 3.301-12.365 5.959a3.32 3.32 0 0 1-2.88.011l-8.664-4.099L5 18.696l.01-.216-.019-.051c0-.433.004-1.263.01-2.162.7-.152 1.898-.311 3.522-.311 1.013 0 1.986.064 2.816.185l.606.089.552-.266 8.565-4.128 3.162-1.524a2.634 2.634 0 0 1 1.154-.267Zm0-2a4.66 4.66 0 0 0-2.022.464l-11.728 5.652a21.991 21.991 0 0 0-3.105-.206c-3.048.001-5.514.53-5.514 1.184 0 0-.027 3.627-.015 3.66-.026.606.132 1.223.725 1.503l17.327 8.199a5.335 5.335 0 0 0 2.284.516c.791 0 1.582-.178 2.319-.533l19.79-9.537c.496-.239.576-.728.558-1.264-.009-.677.009-3.612.009-3.612 0-.653-1.719-1.297-3.852-1.297-1.855 0-3.4.401-3.771.934L27.366 8.495a4.63 4.63 0 0 0-1.988-.45Z" fill="#000"/><path d="M21.073 24.049 3.738 16.298c-.956-.427-.96-1.782-.008-2.216l19.656-8.951a4.897 4.897 0 0 1 4.027-.014l18.075 8.082c.783.35.787 1.46.006 1.816-6.6 3.007-13.202 6.013-19.805 9.018a5.613 5.613 0 0 1-4.616.016Z" fill="#fff"/><path d="M25.415 6.69c.41 0 .807.086 1.182.253l8.913 3.985 7.131 3.188-17.781 8.097a3.596 3.596 0 0 1-1.497.325 3.587 3.587 0 0 1-1.475-.315l-8.668-3.875-7.081-3.166 8.995-4.096 9.079-4.134a2.884 2.884 0 0 1 1.202-.261Zm-.001-2c-.692 0-1.384.148-2.029.44L3.729 14.083c-.953.434-.948 1.789.008 2.216l17.335 7.75a5.61 5.61 0 0 0 4.617-.014c6.602-3.005 13.203-6.012 19.805-9.018.78-.355.777-1.466-.006-1.816L27.413 5.118a4.885 4.885 0 0 0-1.999-.427Z" fill="#000"/><path d="M18.973 14.477c-.002.745-2.128 1.471-3.923 1.492-1.863.021-4.062-.71-4.069-1.467-.007-.759 2.189-1.545 4.091-1.527 1.797.017 3.903.759 3.901 1.502ZM17.796 17.846l5.84 2.495 2.572-3.807c-2.804.438-5.608.876-8.412 1.312ZM22.761 10.538l-2.688.978 3.679.321 1.171 1.942.72-1.762 3.139-.244-2.433-1.024.62-1.485-2.367.708-2.611-1.029.77 1.595ZM28.882 14.289c1.918-.765 3.24-1.496 5.158-2.261l4.972 2.113c-1.86.74-3.12 1.445-4.98 2.185l-5.15-2.037Z" fill="#000"/><path d="M59.651 40V18.182h9.013c1.634 0 3.043.295 4.23.884 1.193.582 2.112 1.42 2.759 2.514.646 1.087.97 2.376.97 3.867 0 1.513-.331 2.799-.992 3.857-.66 1.051-1.598 1.854-2.812 2.408-1.215.546-2.653.82-4.315.82h-5.7v-4.155h4.72c.796 0 1.46-.103 1.992-.309.54-.213.948-.533 1.225-.959.278-.433.416-.987.416-1.662 0-.674-.138-1.232-.415-1.672-.278-.448-.686-.781-1.226-1.002-.54-.227-1.204-.34-1.992-.34h-2.6V40h-5.273Zm12.284-9.972L77.368 40h-5.753l-5.327-9.972h5.647Zm14.906 10.28c-1.711 0-3.188-.336-4.431-1.011a7 7 0 0 1-2.855-2.908c-.661-1.265-.991-2.767-.991-4.507 0-1.69.334-3.168 1.001-4.432a7.23 7.23 0 0 1 2.823-2.961c1.215-.71 2.646-1.066 4.294-1.066 1.164 0 2.23.181 3.196.544a6.87 6.87 0 0 1 2.503 1.608c.703.71 1.25 1.588 1.64 2.632.391 1.037.587 2.226.587 3.569v1.3H80.385V30.05h9.375a2.934 2.934 0 0 0-.394-1.481 2.678 2.678 0 0 0-1.054-1.012c-.44-.249-.948-.373-1.524-.373a3.11 3.11 0 0 0-1.566.394 2.9 2.9 0 0 0-1.097 1.055c-.27.44-.412.94-.426 1.502v3.079c0 .667.131 1.253.394 1.758.263.497.635.884 1.118 1.16.483.278 1.059.416 1.726.416.462 0 .881-.064 1.257-.192.377-.127.7-.316.97-.564a2.33 2.33 0 0 0 .607-.916l4.784.138a5.918 5.918 0 0 1-1.31 2.802c-.669.788-1.546 1.403-2.632 1.843-1.087.433-2.344.65-3.772.65Zm16.404-.074c-1.207 0-2.305-.312-3.292-.937-.987-.625-1.775-1.563-2.365-2.813-.59-1.25-.884-2.802-.884-4.655 0-1.925.305-3.509.916-4.752.61-1.243 1.41-2.162 2.397-2.759a6.124 6.124 0 0 1 3.207-.895c.859 0 1.594.15 2.205.448A4.547 4.547 0 0 1 106.942 25c.397.462.699.941.905 1.438h.107v-8.256h5.209V40h-5.156v-2.653h-.16c-.22.505-.532.977-.937 1.417-.405.44-.913.796-1.524 1.066-.603.27-1.317.404-2.141.404Zm1.811-4.059c.632 0 1.172-.177 1.619-.532.448-.362.792-.87 1.034-1.524.241-.653.362-1.42.362-2.3 0-.896-.121-1.666-.362-2.313-.235-.646-.579-1.143-1.034-1.491-.447-.348-.987-.522-1.619-.522-.646 0-1.193.178-1.641.533-.447.355-.788.855-1.022 1.502-.228.646-.341 1.41-.341 2.29 0 .88.117 1.648.351 2.301.235.654.572 1.162 1.012 1.524.448.355.995.532 1.641.532ZM116.458 40V23.636h5.209V40h-5.209Zm2.61-18.27c-.732 0-1.36-.242-1.886-.725-.525-.49-.788-1.08-.788-1.768 0-.682.263-1.265.788-1.748a2.67 2.67 0 0 1 1.886-.735c.739 0 1.367.245 1.886.735.525.483.788 1.066.788 1.747 0 .69-.263 1.279-.788 1.769-.519.483-1.147.724-1.886.724Zm20.202 6.903-4.784.128a1.788 1.788 0 0 0-.405-.906 2.17 2.17 0 0 0-.863-.628c-.348-.157-.752-.235-1.214-.235-.604 0-1.119.12-1.545.362-.419.242-.625.569-.618.98-.007.32.121.597.384.832.27.234.749.422 1.438.564l3.153.597c1.634.312 2.848.83 3.644 1.555.802.724 1.207 1.683 1.214 2.876-.007 1.123-.341 2.1-1.001 2.93-.653.831-1.548 1.477-2.685 1.94-1.136.454-2.436.68-3.899.68-2.337 0-4.18-.478-5.529-1.437-1.342-.966-2.109-2.259-2.301-3.878l5.145-.128c.114.597.409 1.051.885 1.364.476.312 1.083.468 1.821.468.668 0 1.211-.124 1.63-.372.419-.249.633-.58.64-.991-.007-.37-.171-.664-.49-.884-.32-.228-.821-.405-1.503-.533l-2.855-.543c-1.64-.299-2.862-.85-3.664-1.652-.803-.81-1.201-1.84-1.194-3.09-.007-1.093.284-2.027.874-2.801.589-.781 1.427-1.378 2.514-1.79 1.087-.412 2.369-.618 3.846-.618 2.216 0 3.963.466 5.242 1.396 1.278.923 1.985 2.195 2.12 3.814Z" fill="#fff"/></svg>