<svg width="136" height="50" fill="none" xmlns="http://www.w3.org/2000/svg"><path d="M38.64.001C37.177-.04 35.612.8 34.059 2.235c-.37.342-.738.722-1.104 1.125-4.25 4.698-8.196 13.396-9.422 20.041.477 1.009.852 2.296 1.098 3.28a28.203 28.203 0 0 1 .33 1.475s-.037-.15-.193-.622l-.104-.305a3.327 3.327 0 0 0-.064-.17c-.277-.671-1.045-2.089-1.383-2.705-.267.817-.52 1.64-.756 2.467.974 1.858 1.566 5.04 1.566 5.04s-.05-.206-.295-.926c-.217-.635-1.3-2.614-1.556-3.076-.44 1.688-.614 2.828-.457 3.104.305.539.596 1.464.851 2.49.09.354.172.72.252 1.087a44.986 44.986 0 0 0-.199 7.27c.133 2.613.484 5.191.88 7.735a.526.526 0 0 0 .19.346.486.486 0 0 0 .702-.093.537.537 0 0 0 .1-.385c-.127-1.38-.227-2.763-.298-4.148l.06.619a35.608 35.608 0 0 1-.07-3.992c.181-5.036 1.295-11.109 3.35-17.438 3.473-9.555 8.29-17.223 12.7-20.884-4.02 3.782-9.459 16.022-11.087 20.553-1.823 5.076-3.115 9.837-3.894 14.4 1.344-4.277 5.687-6.114 5.687-6.114s2.132-2.74 4.621-6.65c-1.49.355-3.941.961-4.761 1.32-1.21.53-1.535.711-1.535.711s3.919-2.487 7.28-3.613c4.626-7.588 9.665-18.368 4.59-23.083C40.359.37 39.517.026 38.64.001ZM4 2.083c-2.197 0-4 1.878-4 4.167v34.376c0 2.289 1.803 4.167 4 4.167h15a.98.98 0 0 0 .707-.305c.188-.196.293-.46.293-.737 0-.276-.105-.541-.293-.736a.98.98 0 0 0-.707-.306H4c-1.111 0-2-.926-2-2.083V6.25c0-1.158.889-2.084 2-2.084h24a.98.98 0 0 0 .707-.305c.188-.195.293-.46.293-.736 0-.277-.105-.542-.293-.737A.98.98 0 0 0 28 2.083H4ZM63.445 20.723c-.071-.781-.388-1.389-.949-1.822-.553-.44-1.345-.66-2.375-.66-.682 0-1.25.088-1.705.266-.454.178-.795.423-1.022.735a1.775 1.775 0 0 0-.352 1.055c-.014.327.05.614.192.863.149.248.362.469.639.66a4.9 4.9 0 0 0 1.023.49c.397.142.845.267 1.342.373l1.875.426c1.08.235 2.031.547 2.855.938.831.39 1.527.856 2.088 1.395.568.54.998 1.162 1.29 1.865.29.703.44 1.491.447 2.365-.008 1.378-.356 2.56-1.044 3.547-.69.988-1.68 1.744-2.973 2.27-1.285.525-2.837.788-4.655.788-1.826 0-3.416-.273-4.773-.82-1.356-.547-2.411-1.378-3.164-2.493-.753-1.115-1.14-2.525-1.161-4.23h5.05c.042.703.23 1.29.564 1.758.334.469.792.824 1.374 1.066.59.241 1.272.362 2.046.362.71 0 1.314-.096 1.81-.288.505-.192.892-.458 1.162-.799.27-.34.408-.731.416-1.172a1.615 1.615 0 0 0-.384-1.055c-.248-.298-.632-.553-1.15-.767-.512-.22-1.165-.422-1.96-.607l-2.28-.532c-1.89-.434-3.378-1.133-4.464-2.1-1.087-.972-1.627-2.286-1.62-3.94-.007-1.35.355-2.533 1.087-3.549.732-1.015 1.744-1.807 3.036-2.375 1.293-.568 2.767-.853 4.421-.853 1.69 0 3.157.288 4.4.863 1.25.569 2.22 1.368 2.909 2.397.689 1.03 1.04 2.223 1.054 3.58h-5.05ZM82.14 42.136v-8.789h-.106c-.22.505-.533.977-.938 1.417-.404.44-.912.796-1.523 1.066-.604.27-1.318.404-2.141.404-1.208 0-2.305-.312-3.292-.937-.988-.625-1.776-1.563-2.365-2.813-.59-1.25-.885-2.802-.885-4.655 0-1.925.306-3.509.916-4.752.611-1.243 1.41-2.162 2.397-2.759a6.126 6.126 0 0 1 3.207-.895c.86 0 1.595.15 2.206.448.61.29 1.114.667 1.512 1.129.398.462.7.941.906 1.438h.16v-2.802h5.156v22.5h-5.21Zm-2.897-9.96c.632 0 1.171-.178 1.619-.533.447-.363.792-.87 1.033-1.524.242-.653.362-1.42.362-2.3 0-.896-.12-1.666-.362-2.313-.234-.646-.579-1.143-1.033-1.491-.448-.348-.987-.522-1.62-.522-.646 0-1.193.178-1.64.533-.447.355-.788.855-1.023 1.502-.227.646-.34 1.41-.34 2.29 0 .88.117 1.648.35 2.301.235.654.573 1.162 1.013 1.524.447.355.994.532 1.64.532Zm16.61-17.994V36h-5.209V14.182h5.21ZM99.172 36V19.636h5.209V36h-5.21Zm2.61-18.27a2.69 2.69 0 0 1-1.886-.725c-.525-.49-.788-1.08-.788-1.768 0-.682.263-1.265.788-1.748a2.669 2.669 0 0 1 1.886-.735c.739 0 1.367.245 1.886.735.525.483.788 1.066.788 1.747 0 .69-.263 1.279-.788 1.769-.519.483-1.147.724-1.886.724Zm15.152 1.906v3.836H106.61v-3.836h10.323Zm-8.161-3.92h5.21v15.138c0 .32.049.58.149.778.106.192.259.33.458.416.199.078.437.117.714.117.199 0 .408-.018.628-.053.228-.043.398-.079.512-.107l.788 3.76c-.249.072-.6.16-1.055.267a8.747 8.747 0 0 1-1.608.202c-1.222.057-2.27-.085-3.143-.426-.867-.348-1.531-.888-1.992-1.62-.455-.73-.675-1.65-.661-2.758V15.716Zm18.292 20.593c-1.712 0-3.189-.337-4.432-1.012a7 7 0 0 1-2.855-2.908c-.66-1.265-.991-2.767-.991-4.507 0-1.69.334-3.168 1.002-4.432a7.224 7.224 0 0 1 2.823-2.961c1.214-.71 2.646-1.066 4.293-1.066 1.165 0 2.23.181 3.196.544a6.87 6.87 0 0 1 2.504 1.608c.703.71 1.25 1.588 1.64 2.632.391 1.037.586 2.226.586 3.569v1.3h-14.222V26.05h9.375a2.93 2.93 0 0 0-.394-1.481 2.677 2.677 0 0 0-1.055-1.012c-.44-.249-.948-.373-1.523-.373-.583 0-1.105.131-1.566.394a2.9 2.9 0 0 0-1.098 1.055c-.269.44-.411.94-.426 1.502v3.079c0 .667.132 1.253.395 1.758.262.497.635.884 1.118 1.16.483.278 1.058.416 1.726.416.462 0 .881-.064 1.257-.192.377-.127.7-.316.97-.564a2.34 2.34 0 0 0 .607-.916l4.783.138c-.199 1.073-.635 2.007-1.31 2.802-.668.788-1.545 1.403-2.632 1.843-1.086.433-2.343.65-3.771.65Z" fill="#fff"/></svg>