<svg width="223" height="50" fill="none" xmlns="http://www.w3.org/2000/svg"><path d="M50 0H0v50h50V0Z" fill="#fff"/><path d="M29.847 22.222h-18.42v4.534h6.607v20.466h5.234V26.756h6.58v-4.534Z" fill="#000"/><path d="M46.103 27.895s-2.482-1.656-5.288-1.656c-2.805 0-3.815 1.333-3.815 2.758 0 3.678 10.252 3.31 10.252 10.711 0 11.402-15.631 6.345-15.631 6.345v-5.47s2.989 2.253 6.573 2.253c3.585 0 3.45-2.344 3.45-2.666 0-3.402-10.16-3.402-10.16-10.942 0-10.252 14.802-6.207 14.802-6.207l-.183 4.873Z" fill="#0C0C0C"/><path d="M59.938 18.465v-4.283h18.44v4.283h-6.615V36h-5.2V18.465h-6.626Zm22.326 23.671c-.625 0-1.214-.05-1.768-.149a7.14 7.14 0 0 1-1.428-.373l1.15-3.782c.512.17.974.27 1.386.299.419.028.778-.04 1.076-.203.305-.156.54-.436.703-.841l.202-.49-5.816-16.96h5.454l3.015 11.675h.17l3.058-11.676h5.487l-6.169 17.93a7.564 7.564 0 0 1-1.268 2.365c-.54.689-1.239 1.229-2.098 1.62-.853.39-1.904.585-3.154.585Zm14.686 0v-22.5h5.156v2.802h.16c.213-.497.515-.976.906-1.438a4.543 4.543 0 0 1 1.512-1.13c.618-.298 1.357-.447 2.216-.447 1.137 0 2.199.299 3.186.895.994.597 1.797 1.516 2.407 2.76.611 1.242.917 2.826.917 4.75 0 1.855-.295 3.406-.885 4.656-.582 1.25-1.37 2.188-2.365 2.813-.987.625-2.084.937-3.292.937-.823 0-1.537-.135-2.141-.404a4.654 4.654 0 0 1-1.523-1.066 5.11 5.11 0 0 1-.938-1.417h-.106v8.79h-5.21Zm5.103-14.318c0 .88.117 1.648.352 2.301.241.654.586 1.162 1.033 1.524.455.355.998.532 1.63.532.639 0 1.183-.177 1.63-.532.447-.363.785-.87 1.012-1.524.234-.653.352-1.42.352-2.3 0-.881-.118-1.645-.352-2.291-.227-.647-.565-1.147-1.012-1.502-.44-.355-.984-.533-1.63-.533-.639 0-1.183.174-1.63.522-.447.348-.792.845-1.033 1.491-.235.647-.352 1.417-.352 2.312Zm21.736 8.49c-1.712 0-3.189-.336-4.432-1.011a6.995 6.995 0 0 1-2.855-2.908c-.661-1.265-.991-2.767-.991-4.507 0-1.69.334-3.168 1.001-4.432.668-1.271 1.609-2.258 2.824-2.961 1.214-.71 2.645-1.066 4.293-1.066 1.165 0 2.23.181 3.196.544.966.362 1.8.898 2.503 1.608.704.71 1.25 1.588 1.641 2.632.391 1.037.586 2.226.586 3.569v1.3h-14.222V26.05h9.375a2.94 2.94 0 0 0-.394-1.481 2.684 2.684 0 0 0-1.055-1.012c-.44-.249-.948-.373-1.524-.373a3.11 3.11 0 0 0-1.566.394 2.904 2.904 0 0 0-1.097 1.055c-.27.44-.412.94-.426 1.502v3.079c0 .667.131 1.253.394 1.758.263.497.636.884 1.119 1.16.483.278 1.058.416 1.726.416.461 0 .88-.064 1.257-.192.376-.127.699-.316.969-.564a2.33 2.33 0 0 0 .607-.916l4.784.138a5.918 5.918 0 0 1-1.311 2.802c-.667.788-1.544 1.403-2.631 1.843-1.087.433-2.344.65-3.771.65Zm22.22-15.585c-.071-.781-.387-1.389-.948-1.822-.554-.44-1.346-.66-2.376-.66-.682 0-1.25.088-1.704.266-.455.178-.796.423-1.023.735a1.776 1.776 0 0 0-.352 1.055c-.014.327.05.614.192.863.149.248.362.469.639.66.284.185.625.348 1.023.49.398.142.845.267 1.342.373l1.875.426c1.08.235 2.032.547 2.855.938.831.39 1.527.856 2.089 1.395.568.54.997 1.162 1.289 1.865.291.703.44 1.491.447 2.365-.007 1.378-.355 2.56-1.044 3.547-.689.988-1.68 1.744-2.972 2.27-1.286.525-2.838.788-4.656.788-1.825 0-3.416-.273-4.773-.82-1.356-.547-2.411-1.378-3.164-2.493-.752-1.115-1.14-2.525-1.161-4.23h5.05c.043.703.231 1.29.565 1.758.333.469.791.824 1.374 1.066.589.241 1.271.362 2.045.362.71 0 1.314-.096 1.811-.288.505-.192.892-.458 1.162-.799.269-.34.408-.731.415-1.172a1.617 1.617 0 0 0-.383-1.055c-.249-.298-.633-.553-1.151-.767-.511-.22-1.165-.422-1.96-.607l-2.28-.532c-1.889-.434-3.377-1.133-4.464-2.1-1.087-.972-1.626-2.286-1.619-3.94-.007-1.35.355-2.533 1.086-3.549.732-1.015 1.744-1.807 3.037-2.375 1.292-.568 2.766-.853 4.421-.853 1.69 0 3.157.288 4.4.863 1.25.569 2.219 1.368 2.908 2.397.689 1.03 1.041 2.223 1.055 3.58h-5.05Zm15.65 15.586c-1.726 0-3.207-.355-4.443-1.065a7.206 7.206 0 0 1-2.833-2.962c-.661-1.271-.991-2.741-.991-4.41 0-1.677.33-3.147.991-4.411a7.254 7.254 0 0 1 2.844-2.972c1.236-.71 2.71-1.066 4.421-1.066 1.513 0 2.831.274 3.953.82 1.129.548 2.01 1.322 2.642 2.323.639.994.976 2.163 1.012 3.505h-4.869c-.099-.838-.383-1.495-.852-1.97-.462-.477-1.065-.715-1.811-.715-.604 0-1.133.17-1.588.512-.454.334-.809.83-1.065 1.491-.248.654-.373 1.463-.373 2.43 0 .965.125 1.782.373 2.45.256.66.611 1.16 1.065 1.502.455.333.984.5 1.588.5.483 0 .909-.103 1.278-.309.377-.206.686-.508.927-.905.242-.405.394-.895.458-1.47h4.869c-.05 1.35-.387 2.528-1.012 3.537-.618 1.008-1.488 1.793-2.61 2.354-1.115.554-2.44.83-3.974.83ZM171.921 36V19.636h5.06v2.983h.171c.298-1.08.784-1.882 1.459-2.407.675-.533 1.46-.8 2.355-.8.241 0 .49.018.745.054.256.028.494.075.714.138v4.528a4.986 4.986 0 0 0-.98-.202 8.694 8.694 0 0 0-1.065-.075c-.618 0-1.176.139-1.673.416-.49.27-.877.65-1.161 1.14-.277.482-.416 1.05-.416 1.704V36h-5.209Zm12.627 0V19.636h5.209V36h-5.209Zm2.61-18.27c-.732 0-1.36-.242-1.886-.725-.525-.49-.788-1.08-.788-1.768 0-.682.263-1.265.788-1.748a2.67 2.67 0 0 1 1.886-.735c.738 0 1.367.245 1.886.735.525.483.788 1.066.788 1.747 0 .69-.263 1.279-.788 1.769-.519.483-1.148.724-1.886.724Zm5.915 24.406v-22.5h5.156v2.802h.16c.213-.497.515-.976.906-1.438a4.537 4.537 0 0 1 1.513-1.13c.617-.298 1.356-.447 2.215-.447 1.137 0 2.199.299 3.186.895.994.597 1.797 1.516 2.407 2.76.611 1.242.917 2.826.917 4.75 0 1.855-.295 3.406-.885 4.656-.582 1.25-1.37 2.188-2.365 2.813-.987.625-2.084.937-3.292.937-.823 0-1.537-.135-2.141-.404a4.654 4.654 0 0 1-1.523-1.066 5.11 5.11 0 0 1-.938-1.417h-.106v8.79h-5.21Zm5.103-14.318c0 .88.117 1.648.352 2.301.241.654.586 1.162 1.033 1.524.455.355.998.532 1.63.532.639 0 1.183-.177 1.63-.532.447-.363.785-.87 1.012-1.524.234-.653.352-1.42.352-2.3 0-.881-.118-1.645-.352-2.291-.227-.647-.565-1.147-1.012-1.502-.44-.355-.984-.533-1.63-.533-.639 0-1.182.174-1.63.522-.447.348-.792.845-1.033 1.491-.235.647-.352 1.417-.352 2.312Zm23.323-8.182v3.836h-10.323v-3.836h10.323Zm-8.16-3.92h5.209v15.138c0 .32.05.58.149.778.107.192.259.33.458.416.199.078.437.117.714.117.199 0 .409-.018.629-.053a9.66 9.66 0 0 0 .511-.107l.788 3.76c-.248.072-.6.16-1.054.267a8.77 8.77 0 0 1-1.609.202c-1.222.057-2.269-.085-3.143-.426-.866-.348-1.53-.888-1.992-1.62-.454-.73-.675-1.65-.66-2.758V15.716Z" fill="#fff"/></svg>