<svg width="36" height="36" fill="none" xmlns="http://www.w3.org/2000/svg"><path fill-rule="evenodd" clip-rule="evenodd" d="M18 36c9.941 0 18-8.059 18-18S27.941 0 18 0 0 8.059 0 18s8.059 18 18 18ZM7.875 13.5A5.631 5.631 0 0 1 13.5 7.875h9a5.631 5.631 0 0 1 5.625 5.625v9a5.631 5.631 0 0 1-5.625 5.625h-9A5.631 5.631 0 0 1 7.875 22.5v-9Zm18 0a3.38 3.38 0 0 0-3.375-3.375h-9a3.38 3.38 0 0 0-3.375 3.375v9a3.38 3.38 0 0 0 3.375 3.375h9a3.38 3.38 0 0 0 3.375-3.375v-9Zm-3.046-1.92a1.125 1.125 0 1 1 1.591 1.59 1.125 1.125 0 0 1-1.59-1.59ZM12.375 18A5.631 5.631 0 0 1 18 12.375 5.631 5.631 0 0 1 23.625 18 5.631 5.631 0 0 1 18 23.625 5.631 5.631 0 0 1 12.375 18Zm9 0A3.38 3.38 0 0 0 18 14.625 3.38 3.38 0 0 0 14.625 18 3.38 3.38 0 0 0 18 21.375 3.38 3.38 0 0 0 21.375 18Z" fill="#D1B000"/></svg>