<svg width="36" height="36" fill="none" xmlns="http://www.w3.org/2000/svg"><path fill-rule="evenodd" clip-rule="evenodd" d="M18 36c9.941 0 18-8.059 18-18S27.941 0 18 0 0 8.059 0 18s8.059 18 18 18Zm9.48-20.598c.203 0 .403-.011.6-.03V11.42c-3.151-.22-5.672-2.619-6-5.659h-3.493l-.036 16.588c0 2.035-1.846 3.638-3.936 3.638s-3.785-1.649-3.785-3.684 1.694-3.684 3.784-3.684c.117 0 .23.015.342.03l.117.015v-3.558a19.678 19.678 0 0 1-.109-.007c-.115-.008-.231-.016-.35-.016-4.094 0-7.414 3.233-7.414 7.22 0 3.986 3.32 7.218 7.414 7.218 4.095 0 7.415-3.232 7.415-7.219v-9.767a6.56 6.56 0 0 0 5.451 2.868Z" fill="#D1B000"/></svg>