<svg width="36" height="36" fill="none" xmlns="http://www.w3.org/2000/svg"><path fill-rule="evenodd" clip-rule="evenodd" d="M18 36c9.941 0 18-8.059 18-18S27.941 0 18 0 0 8.059 0 18s8.059 18 18 18Zm7.737-23.206a8.146 8.146 0 0 0 2.388-.672 8.57 8.57 0 0 1-2.072 2.206c.006.181.01.367.01.552 0 5.629-4.178 12.12-11.82 12.12-2.347 0-4.531-.704-6.368-1.915a8.198 8.198 0 0 0 6.149-1.762c-1.817-.034-3.35-1.269-3.881-2.96a4.06 4.06 0 0 0 1.877-.071c-1.9-.393-3.332-2.114-3.332-4.179v-.053c.56.319 1.2.511 1.883.534a4.29 4.29 0 0 1-1.848-3.548c0-.78.203-1.511.561-2.143 2.05 2.579 5.11 4.275 8.564 4.453a4.38 4.38 0 0 1-.11-.971c0-2.354 1.861-4.26 4.156-4.26 1.195 0 2.274.516 3.032 1.345a8.219 8.219 0 0 0 2.639-1.033 4.254 4.254 0 0 1-1.828 2.357Z" fill="#D1B000"/></svg>